<svg version="1.1" viewBox="0.0 0.0 343.88188976377955 303.002624671916" fill="none" stroke="none" stroke-linecap="square" stroke-miterlimit="10" xmlns:xlink="http://www.w3.org/1999/xlink" xmlns="http://www.w3.org/2000/svg"><clipPath id="p.0"><path d="m0 0l343.8819 0l0 303.00262l-343.8819 0l0 -303.00262z" clip-rule="nonzero"/></clipPath><g clip-path="url(#p.0)"><path fill="#000000" fill-opacity="0.0" d="m0 0l343.8819 0l0 303.00262l-343.8819 0z" fill-rule="evenodd"/><path fill="#ffffff" d="m53.979004 87.43307l0 0c0 -1.3828812 1.2197571 -2.5039368 2.7244072 -2.5039368l0 0c1.5046501 0 2.724411 1.1210556 2.724411 2.5039368l0 0c0 1.3828888 -1.2197609 2.5039368 -2.724411 2.5039368l0 0c-1.5046501 0 -2.7244072 -1.121048 -2.7244072 -2.5039368z" fill-rule="evenodd"/><path stroke="#0000ff" stroke-width="1.0" stroke-linejoin="round" stroke-linecap="butt" d="m53.979004 87.43307l0 0c0 -1.3828812 1.2197571 -2.5039368 2.7244072 -2.5039368l0 0c1.5046501 0 2.724411 1.1210556 2.724411 2.5039368l0 0c0 1.3828888 -1.2197609 2.5039368 -2.724411 2.5039368l0 0c-1.5046501 0 -2.7244072 -1.121048 -2.7244072 -2.5039368z" fill-rule="evenodd"/><path fill="#ffffff" d="m86.238846 63.293964l0 0c0 -1.3828888 1.2197571 -2.5039368 2.724411 -2.5039368l0 0c1.5046463 0 2.724411 1.121048 2.724411 2.5039368l0 0c0 1.382885 -1.2197647 2.503933 -2.724411 2.503933l0 0c-1.5046539 0 -2.724411 -1.121048 -2.724411 -2.503933z" fill-rule="evenodd"/><path stroke="#0000ff" stroke-width="1.0" stroke-linejoin="round" stroke-linecap="butt" d="m86.238846 63.293964l0 0c0 -1.3828888 1.2197571 -2.5039368 2.724411 -2.5039368l0 0c1.5046463 0 2.724411 1.121048 2.724411 2.5039368l0 0c0 1.382885 -1.2197647 2.503933 -2.724411 2.503933l0 0c-1.5046539 0 -2.724411 -1.121048 -2.724411 -2.503933z" fill-rule="evenodd"/><path fill="#ffffff" d="m68.220474 79.71129l0 0c0 -1.3828888 1.2197571 -2.5039368 2.724411 -2.5039368l0 0c1.5046463 0 2.7244034 1.121048 2.7244034 2.5039368l0 0c0 1.3828812 -1.2197571 2.5039368 -2.7244034 2.5039368l0 0c-1.5046539 0 -2.724411 -1.1210556 -2.724411 -2.5039368z" fill-rule="evenodd"/><path stroke="#0000ff" stroke-width="1.0" stroke-linejoin="round" stroke-linecap="butt" d="m68.220474 79.71129l0 0c0 -1.3828888 1.2197571 -2.5039368 2.724411 -2.5039368l0 0c1.5046463 0 2.7244034 1.121048 2.7244034 2.5039368l0 0c0 1.3828812 -1.2197571 2.5039368 -2.7244034 2.5039368l0 0c-1.5046539 0 -2.724411 -1.1210556 -2.724411 -2.5039368z" fill-rule="evenodd"/><path fill="#ffffff" d="m41.669292 105.43044l0 0c0 -1.3828812 1.2197571 -2.5039368 2.7244072 -2.5039368l0 0c1.5046501 0 2.724411 1.1210556 2.724411 2.5039368l0 0c0 1.3828888 -1.2197609 2.5039368 -2.724411 2.5039368l0 0c-1.5046501 0 -2.7244072 -1.121048 -2.7244072 -2.5039368z" fill-rule="evenodd"/><path stroke="#0000ff" stroke-width="1.0" stroke-linejoin="round" stroke-linecap="butt" d="m41.669292 105.43044l0 0c0 -1.3828812 1.2197571 -2.5039368 2.7244072 -2.5039368l0 0c1.5046501 0 2.724411 1.1210556 2.724411 2.5039368l0 0c0 1.3828888 -1.2197609 2.5039368 -2.724411 2.5039368l0 0c-1.5046501 0 -2.7244072 -1.121048 -2.7244072 -2.5039368z" fill-rule="evenodd"/><path fill="#ffffff" d="m68.220474 100.42257l0 0c0 -1.3828812 1.2197571 -2.5039368 2.724411 -2.5039368l0 0c1.5046463 0 2.7244034 1.1210556 2.7244034 2.5039368l0 0c0 1.3828888 -1.2197571 2.5039368 -2.7244034 2.5039368l0 0c-1.5046539 0 -2.724411 -1.121048 -2.724411 -2.5039368z" fill-rule="evenodd"/><path stroke="#0000ff" stroke-width="1.0" stroke-linejoin="round" stroke-linecap="butt" d="m68.220474 100.42257l0 0c0 -1.3828812 1.2197571 -2.5039368 2.724411 -2.5039368l0 0c1.5046463 0 2.7244034 1.1210556 2.7244034 2.5039368l0 0c0 1.3828888 -1.2197571 2.5039368 -2.7244034 2.5039368l0 0c-1.5046539 0 -2.724411 -1.121048 -2.724411 -2.5039368z" fill-rule="evenodd"/><path fill="#ffffff" d="m63.11811 22.95013l0 0c0 -1.382885 1.2197571 -2.5039368 2.724411 -2.5039368l0 0c1.5046463 0 2.724411 1.1210518 2.724411 2.5039368l0 0c0 1.3828869 -1.2197647 2.5039387 -2.724411 2.5039387l0 0c-1.5046539 0 -2.724411 -1.1210518 -2.724411 -2.5039387z" fill-rule="evenodd"/><path stroke="#0000ff" stroke-width="1.0" stroke-linejoin="round" stroke-linecap="butt" d="m63.11811 22.95013l0 0c0 -1.382885 1.2197571 -2.5039368 2.724411 -2.5039368l0 0c1.5046463 0 2.724411 1.1210518 2.724411 2.5039368l0 0c0 1.3828869 -1.2197647 2.5039387 -2.724411 2.5039387l0 0c-1.5046539 0 -2.724411 -1.1210518 -2.724411 -2.5039387z" fill-rule="evenodd"/><path fill="#ffffff" d="m107.68767 113.51181l0 0c0 -1.3828888 1.2197571 -2.5039368 2.7244034 -2.5039368l0 0c1.5046539 0 2.724411 1.121048 2.724411 2.5039368l0 0c0 1.3828888 -1.2197571 2.5039368 -2.724411 2.5039368l0 0c-1.5046463 0 -2.7244034 -1.121048 -2.7244034 -2.5039368z" fill-rule="evenodd"/><path stroke="#0000ff" stroke-width="1.0" stroke-linejoin="round" stroke-linecap="butt" d="m107.68767 113.51181l0 0c0 -1.3828888 1.2197571 -2.5039368 2.7244034 -2.5039368l0 0c1.5046539 0 2.724411 1.121048 2.724411 2.5039368l0 0c0 1.3828888 -1.2197571 2.5039368 -2.724411 2.5039368l0 0c-1.5046463 0 -2.7244034 -1.121048 -2.7244034 -2.5039368z" fill-rule="evenodd"/><path fill="#ffffff" d="m102.238846 95.414696l0 0c0 -1.3828812 1.2197571 -2.5039368 2.724411 -2.5039368l0 0c1.5046463 0 2.724411 1.1210556 2.724411 2.5039368l0 0c0 1.3828888 -1.2197647 2.5039368 -2.724411 2.5039368l0 0c-1.5046539 0 -2.724411 -1.121048 -2.724411 -2.5039368z" fill-rule="evenodd"/><path stroke="#0000ff" stroke-width="1.0" stroke-linejoin="round" stroke-linecap="butt" d="m102.238846 95.414696l0 0c0 -1.3828812 1.2197571 -2.5039368 2.724411 -2.5039368l0 0c1.5046463 0 2.724411 1.1210556 2.724411 2.5039368l0 0c0 1.3828888 -1.2197647 2.5039368 -2.724411 2.5039368l0 0c-1.5046539 0 -2.724411 -1.121048 -2.724411 -2.5039368z" fill-rule="evenodd"/><path fill="#ffffff" d="m80.79002 46.322834l0 0c0 -1.382885 1.2197647 -2.5039368 2.724411 -2.5039368l0 0c1.5046539 0 2.724411 1.1210518 2.724411 2.5039368l0 0c0 1.382885 -1.2197571 2.5039368 -2.724411 2.5039368l0 0c-1.5046463 0 -2.724411 -1.1210518 -2.724411 -2.5039368z" fill-rule="evenodd"/><path stroke="#0000ff" stroke-width="1.0" stroke-linejoin="round" stroke-linecap="butt" d="m80.79002 46.322834l0 0c0 -1.382885 1.2197647 -2.5039368 2.724411 -2.5039368l0 0c1.5046539 0 2.724411 1.1210518 2.724411 2.5039368l0 0c0 1.382885 -1.2197571 2.5039368 -2.724411 2.5039368l0 0c-1.5046463 0 -2.724411 -1.1210518 -2.724411 -2.5039368z" fill-rule="evenodd"/><path fill="#ffffff" d="m96.79002 54.367455l0 0c0 -1.382885 1.2197647 -2.5039368 2.724411 -2.5039368l0 0c1.5046539 0 2.724411 1.1210518 2.724411 2.5039368l0 0c0 1.382885 -1.2197571 2.5039368 -2.724411 2.5039368l0 0c-1.5046463 0 -2.724411 -1.1210518 -2.724411 -2.5039368z" fill-rule="evenodd"/><path stroke="#0000ff" stroke-width="1.0" stroke-linejoin="round" stroke-linecap="butt" d="m96.79002 54.367455l0 0c0 -1.382885 1.2197647 -2.5039368 2.724411 -2.5039368l0 0c1.5046539 0 2.724411 1.1210518 2.724411 2.5039368l0 0c0 1.382885 -1.2197571 2.5039368 -2.724411 2.5039368l0 0c-1.5046463 0 -2.724411 -1.1210518 -2.724411 -2.5039368z" fill-rule="evenodd"/><path fill="#ffffff" d="m68.220474 51.330708l0 0c0 -1.382885 1.2197571 -2.5039368 2.724411 -2.5039368l0 0c1.5046463 0 2.7244034 1.1210518 2.7244034 2.5039368l0 0c0 1.3828888 -1.2197571 2.5039368 -2.7244034 2.5039368l0 0c-1.5046539 0 -2.724411 -1.121048 -2.724411 -2.5039368z" fill-rule="evenodd"/><path stroke="#0000ff" stroke-width="1.0" stroke-linejoin="round" stroke-linecap="butt" d="m68.220474 51.330708l0 0c0 -1.382885 1.2197571 -2.5039368 2.724411 -2.5039368l0 0c1.5046463 0 2.7244034 1.1210518 2.7244034 2.5039368l0 0c0 1.3828888 -1.2197571 2.5039368 -2.7244034 2.5039368l0 0c-1.5046539 0 -2.724411 -1.121048 -2.724411 -2.5039368z" fill-rule="evenodd"/><path fill="#ffffff" d="m100.220474 74.891075l0 0c0 -1.3828888 1.2197571 -2.5039368 2.724411 -2.5039368l0 0c1.5046463 0 2.7244034 1.121048 2.7244034 2.5039368l0 0c0 1.3828888 -1.2197571 2.5039368 -2.7244034 2.5039368l0 0c-1.5046539 0 -2.724411 -1.121048 -2.724411 -2.5039368z" fill-rule="evenodd"/><path stroke="#0000ff" stroke-width="1.0" stroke-linejoin="round" stroke-linecap="butt" d="m100.220474 74.891075l0 0c0 -1.3828888 1.2197571 -2.5039368 2.724411 -2.5039368l0 0c1.5046463 0 2.7244034 1.121048 2.7244034 2.5039368l0 0c0 1.3828888 -1.2197571 2.5039368 -2.7244034 2.5039368l0 0c-1.5046539 0 -2.724411 -1.121048 -2.724411 -2.5039368z" fill-rule="evenodd"/><path fill="#ffffff" d="m111.11811 65.34908l0 0c0 -1.3828888 1.2197571 -2.5039368 2.724411 -2.5039368l0 0c1.5046463 0 2.724411 1.121048 2.724411 2.5039368l0 0c0 1.3828812 -1.2197647 2.5039368 -2.724411 2.5039368l0 0c-1.5046539 0 -2.724411 -1.1210556 -2.724411 -2.5039368z" fill-rule="evenodd"/><path stroke="#0000ff" stroke-width="1.0" stroke-linejoin="round" stroke-linecap="butt" d="m111.11811 65.34908l0 0c0 -1.3828888 1.2197571 -2.5039368 2.724411 -2.5039368l0 0c1.5046463 0 2.724411 1.121048 2.724411 2.5039368l0 0c0 1.3828812 -1.2197647 2.5039368 -2.724411 2.5039368l0 0c-1.5046539 0 -2.724411 -1.1210556 -2.724411 -2.5039368z" fill-rule="evenodd"/><path fill="#ffffff" d="m105.66929 89.43044l0 0c0 -1.3828812 1.2197647 -2.5039368 2.724411 -2.5039368l0 0c1.5046539 0 2.724411 1.1210556 2.724411 2.5039368l0 0c0 1.3828888 -1.2197571 2.5039368 -2.724411 2.5039368l0 0c-1.5046463 0 -2.724411 -1.121048 -2.724411 -2.5039368z" fill-rule="evenodd"/><path stroke="#0000ff" stroke-width="1.0" stroke-linejoin="round" stroke-linecap="butt" d="m105.66929 89.43044l0 0c0 -1.3828812 1.2197647 -2.5039368 2.724411 -2.5039368l0 0c1.5046539 0 2.724411 1.1210556 2.724411 2.5039368l0 0c0 1.3828888 -1.2197571 2.5039368 -2.724411 2.5039368l0 0c-1.5046463 0 -2.724411 -1.121048 -2.724411 -2.5039368z" fill-rule="evenodd"/><path fill="#ffffff" d="m99.385826 119.04199l0 0c0 -1.3828812 1.2197571 -2.5039368 2.724411 -2.5039368l0 0c1.5046463 0 2.724411 1.1210556 2.724411 2.5039368l0 0c0 1.3828888 -1.2197647 2.5039368 -2.724411 2.5039368l0 0c-1.5046539 0 -2.724411 -1.121048 -2.724411 -2.5039368z" fill-rule="evenodd"/><path stroke="#0000ff" stroke-width="1.0" stroke-linejoin="round" stroke-linecap="butt" d="m99.385826 119.04199l0 0c0 -1.3828812 1.2197571 -2.5039368 2.724411 -2.5039368l0 0c1.5046463 0 2.724411 1.1210556 2.724411 2.5039368l0 0c0 1.3828888 -1.2197647 2.5039368 -2.724411 2.5039368l0 0c-1.5046539 0 -2.724411 -1.121048 -2.724411 -2.5039368z" fill-rule="evenodd"/><path fill="#ffffff" d="m115.385826 135.04199l0 0c0 -1.3828888 1.2197571 -2.5039368 2.724411 -2.5039368l0 0c1.5046463 0 2.724411 1.121048 2.724411 2.5039368l0 0c0 1.3828888 -1.2197647 2.5039368 -2.724411 2.5039368l0 0c-1.5046539 0 -2.724411 -1.121048 -2.724411 -2.5039368z" fill-rule="evenodd"/><path stroke="#0000ff" stroke-width="1.0" stroke-linejoin="round" stroke-linecap="butt" d="m115.385826 135.04199l0 0c0 -1.3828888 1.2197571 -2.5039368 2.724411 -2.5039368l0 0c1.5046463 0 2.724411 1.121048 2.724411 2.5039368l0 0c0 1.3828888 -1.2197647 2.5039368 -2.724411 2.5039368l0 0c-1.5046539 0 -2.724411 -1.121048 -2.724411 -2.5039368z" fill-rule="evenodd"/><path fill="#ffffff" d="m131.38583 151.04199l0 0c0 -1.3828888 1.2197571 -2.5039368 2.7243958 -2.5039368l0 0c1.5046539 0 2.724411 1.121048 2.724411 2.5039368l0 0c0 1.3828888 -1.2197571 2.5039368 -2.724411 2.5039368l0 0c-1.5046387 0 -2.7243958 -1.121048 -2.7243958 -2.5039368z" fill-rule="evenodd"/><path stroke="#0000ff" stroke-width="1.0" stroke-linejoin="round" stroke-linecap="butt" d="m131.38583 151.04199l0 0c0 -1.3828888 1.2197571 -2.5039368 2.7243958 -2.5039368l0 0c1.5046539 0 2.724411 1.121048 2.724411 2.5039368l0 0c0 1.3828888 -1.2197571 2.5039368 -2.724411 2.5039368l0 0c-1.5046387 0 -2.7243958 -1.121048 -2.7243958 -2.5039368z" fill-rule="evenodd"/><path fill="#ffffff" d="m116.56693 41.31496l0 0c0 -1.382885 1.2197571 -2.5039368 2.7244034 -2.5039368l0 0c1.5046539 0 2.724411 1.1210518 2.724411 2.5039368l0 0c0 1.382885 -1.2197571 2.5039368 -2.724411 2.5039368l0 0c-1.5046463 0 -2.7244034 -1.1210518 -2.7244034 -2.5039368z" fill-rule="evenodd"/><path stroke="#0000ff" stroke-width="1.0" stroke-linejoin="round" stroke-linecap="butt" d="m116.56693 41.31496l0 0c0 -1.382885 1.2197571 -2.5039368 2.7244034 -2.5039368l0 0c1.5046539 0 2.724411 1.1210518 2.724411 2.5039368l0 0c0 1.382885 -1.2197571 2.5039368 -2.724411 2.5039368l0 0c-1.5046463 0 -2.7244034 -1.1210518 -2.7244034 -2.5039368z" fill-rule="evenodd"/><path fill="#ffffff" d="m145.23622 30.839895l0 0c0 -1.3828869 1.2197571 -2.5039368 2.724411 -2.5039368l0 0c1.5046539 0 2.724411 1.1210499 2.724411 2.5039368l0 0c0 1.3828869 -1.2197571 2.5039387 -2.724411 2.5039387l0 0c-1.5046539 0 -2.724411 -1.1210518 -2.724411 -2.5039387z" fill-rule="evenodd"/><path stroke="#0000ff" stroke-width="1.0" stroke-linejoin="round" stroke-linecap="butt" d="m145.23622 30.839895l0 0c0 -1.3828869 1.2197571 -2.5039368 2.724411 -2.5039368l0 0c1.5046539 0 2.724411 1.1210499 2.724411 2.5039368l0 0c0 1.3828869 -1.2197571 2.5039387 -2.724411 2.5039387l0 0c-1.5046539 0 -2.724411 -1.1210518 -2.724411 -2.5039387z" fill-rule="evenodd"/><path fill="#ffffff" d="m15.118111 103.04199l0 0c0 -1.3828812 1.219759 -2.5039368 2.724409 -2.5039368l0 0c1.5046501 0 2.724409 1.1210556 2.724409 2.5039368l0 0c0 1.3828888 -1.219759 2.5039368 -2.724409 2.5039368l0 0c-1.5046501 0 -2.724409 -1.121048 -2.724409 -2.5039368z" fill-rule="evenodd"/><path stroke="#0000ff" stroke-width="1.0" stroke-linejoin="round" stroke-linecap="butt" d="m15.118111 103.04199l0 0c0 -1.3828812 1.219759 -2.5039368 2.724409 -2.5039368l0 0c1.5046501 0 2.724409 1.1210556 2.724409 2.5039368l0 0c0 1.3828888 -1.219759 2.5039368 -2.724409 2.5039368l0 0c-1.5046501 0 -2.724409 -1.121048 -2.724409 -2.5039368z" fill-rule="evenodd"/><path fill="#ffffff" d="m30.223097 63.293964l0 0c0 -1.3828888 1.219759 -2.5039368 2.724409 -2.5039368l0 0c1.5046501 0 2.724411 1.121048 2.724411 2.5039368l0 0c0 1.382885 -1.2197609 2.503933 -2.724411 2.503933l0 0c-1.5046501 0 -2.724409 -1.121048 -2.724409 -2.503933z" fill-rule="evenodd"/><path stroke="#0000ff" stroke-width="1.0" stroke-linejoin="round" stroke-linecap="butt" d="m30.223097 63.293964l0 0c0 -1.3828888 1.219759 -2.5039368 2.724409 -2.5039368l0 0c1.5046501 0 2.724411 1.121048 2.724411 2.5039368l0 0c0 1.382885 -1.2197609 2.503933 -2.724411 2.503933l0 0c-1.5046501 0 -2.724409 -1.121048 -2.724409 -2.503933z" fill-rule="evenodd"/><path fill="#ffffff" d="m47.11811 138.21785l0 0c0 -1.3828888 1.2197609 -2.5039368 2.7244072 -2.5039368l0 0c1.5046501 0 2.724411 1.121048 2.724411 2.5039368l0 0c0 1.3828888 -1.2197609 2.5039368 -2.724411 2.5039368l0 0c-1.5046463 0 -2.7244072 -1.121048 -2.7244072 -2.5039368z" fill-rule="evenodd"/><path stroke="#0000ff" stroke-width="1.0" stroke-linejoin="round" stroke-linecap="butt" d="m47.11811 138.21785l0 0c0 -1.3828888 1.2197609 -2.5039368 2.7244072 -2.5039368l0 0c1.5046501 0 2.724411 1.121048 2.724411 2.5039368l0 0c0 1.3828888 -1.2197609 2.5039368 -2.724411 2.5039368l0 0c-1.5046463 0 -2.7244072 -1.121048 -2.7244072 -2.5039368z" fill-rule="evenodd"/><path fill="#ffffff" d="m83.385826 135.04199l0 0c0 -1.3828888 1.2197571 -2.5039368 2.724411 -2.5039368l0 0c1.5046463 0 2.724411 1.121048 2.724411 2.5039368l0 0c0 1.3828888 -1.2197647 2.5039368 -2.724411 2.5039368l0 0c-1.5046539 0 -2.724411 -1.121048 -2.724411 -2.5039368z" fill-rule="evenodd"/><path stroke="#0000ff" stroke-width="1.0" stroke-linejoin="round" stroke-linecap="butt" d="m83.385826 135.04199l0 0c0 -1.3828888 1.2197571 -2.5039368 2.724411 -2.5039368l0 0c1.5046463 0 2.724411 1.121048 2.724411 2.5039368l0 0c0 1.3828888 -1.2197647 2.5039368 -2.724411 2.5039368l0 0c-1.5046539 0 -2.724411 -1.121048 -2.724411 -2.5039368z" fill-rule="evenodd"/><path fill="#ffffff" d="m142.28346 130.03412l0 0c0 -1.3828888 1.2197571 -2.5039368 2.724411 -2.5039368l0 0c1.5046539 0 2.724411 1.121048 2.724411 2.5039368l0 0c0 1.3828888 -1.2197571 2.5039368 -2.724411 2.5039368l0 0c-1.5046539 0 -2.724411 -1.121048 -2.724411 -2.5039368z" fill-rule="evenodd"/><path stroke="#0000ff" stroke-width="1.0" stroke-linejoin="round" stroke-linecap="butt" d="m142.28346 130.03412l0 0c0 -1.3828888 1.2197571 -2.5039368 2.724411 -2.5039368l0 0c1.5046539 0 2.724411 1.121048 2.724411 2.5039368l0 0c0 1.3828888 -1.2197571 2.5039368 -2.724411 2.5039368l0 0c-1.5046539 0 -2.724411 -1.121048 -2.724411 -2.5039368z" fill-rule="evenodd"/><path fill="#ffffff" d="m145.23622 108.049866l0 0c0 -1.3828812 1.2197571 -2.5039368 2.724411 -2.5039368l0 0c1.5046539 0 2.724411 1.1210556 2.724411 2.5039368l0 0c0 1.3828888 -1.2197571 2.5039368 -2.724411 2.5039368l0 0c-1.5046539 0 -2.724411 -1.121048 -2.724411 -2.5039368z" fill-rule="evenodd"/><path stroke="#0000ff" stroke-width="1.0" stroke-linejoin="round" stroke-linecap="butt" d="m145.23622 108.049866l0 0c0 -1.3828812 1.2197571 -2.5039368 2.724411 -2.5039368l0 0c1.5046539 0 2.724411 1.1210556 2.724411 2.5039368l0 0c0 1.3828888 -1.2197571 2.5039368 -2.724411 2.5039368l0 0c-1.5046539 0 -2.724411 -1.121048 -2.724411 -2.5039368z" fill-rule="evenodd"/><path fill="#ffffff" d="m136.83464 59.375328l0 0c0 -1.382885 1.2197723 -2.5039368 2.724411 -2.5039368l0 0c1.5046539 0 2.724411 1.1210518 2.724411 2.5039368l0 0c0 1.382885 -1.2197571 2.5039368 -2.724411 2.5039368l0 0c-1.5046387 0 -2.724411 -1.1210518 -2.724411 -2.5039368z" fill-rule="evenodd"/><path stroke="#0000ff" stroke-width="1.0" stroke-linejoin="round" stroke-linecap="butt" d="m136.83464 59.375328l0 0c0 -1.382885 1.2197723 -2.5039368 2.724411 -2.5039368l0 0c1.5046539 0 2.724411 1.1210518 2.724411 2.5039368l0 0c0 1.382885 -1.2197571 2.5039368 -2.724411 2.5039368l0 0c-1.5046387 0 -2.724411 -1.1210518 -2.724411 -2.5039368z" fill-rule="evenodd"/><path fill="#ffffff" d="m159.25722 140.04987l0 0c0 -1.3828888 1.2197571 -2.5039368 2.724411 -2.5039368l0 0c1.5046539 0 2.724411 1.121048 2.724411 2.5039368l0 0c0 1.3828888 -1.2197571 2.5039368 -2.724411 2.5039368l0 0c-1.5046539 0 -2.724411 -1.121048 -2.724411 -2.5039368z" fill-rule="evenodd"/><path stroke="#0000ff" stroke-width="1.0" stroke-linejoin="round" stroke-linecap="butt" d="m159.25722 140.04987l0 0c0 -1.3828888 1.2197571 -2.5039368 2.724411 -2.5039368l0 0c1.5046539 0 2.724411 1.121048 2.724411 2.5039368l0 0c0 1.3828888 -1.2197571 2.5039368 -2.724411 2.5039368l0 0c-1.5046539 0 -2.724411 -1.121048 -2.724411 -2.5039368z" fill-rule="evenodd"/><path fill="#ffffff" d="m153.59055 63.293964l0 0c0 -1.3828888 1.2197723 -2.5039368 2.724411 -2.5039368l0 0c1.5046539 0 2.724411 1.121048 2.724411 2.5039368l0 0c0 1.382885 -1.2197571 2.503933 -2.724411 2.503933l0 0c-1.5046387 0 -2.724411 -1.121048 -2.724411 -2.503933z" fill-rule="evenodd"/><path stroke="#0000ff" stroke-width="1.0" stroke-linejoin="round" stroke-linecap="butt" d="m153.59055 63.293964l0 0c0 -1.3828888 1.2197723 -2.5039368 2.724411 -2.5039368l0 0c1.5046539 0 2.724411 1.121048 2.724411 2.5039368l0 0c0 1.382885 -1.2197571 2.503933 -2.724411 2.503933l0 0c-1.5046387 0 -2.724411 -1.121048 -2.724411 -2.503933z" fill-rule="evenodd"/><path fill="#0000ff" d="m86.238846 86.708664l0 0c0 -2.6788025 2.3619614 -4.850395 5.275589 -4.850395l0 0c2.9136276 0 5.275589 2.1715927 5.275589 4.850395l0 0c0 2.6787949 -2.3619614 4.8503876 -5.275589 4.8503876l0 0c-2.9136276 0 -5.275589 -2.1715927 -5.275589 -4.8503876z" fill-rule="evenodd"/><path stroke="#0000ff" stroke-width="1.0" stroke-linejoin="round" stroke-linecap="butt" d="m86.238846 86.708664l0 0c0 -2.6788025 2.3619614 -4.850395 5.275589 -4.850395l0 0c2.9136276 0 5.275589 2.1715927 5.275589 4.850395l0 0c0 2.6787949 -2.3619614 4.8503876 -5.275589 4.8503876l0 0c-2.9136276 0 -5.275589 -2.1715927 -5.275589 -4.8503876z" fill-rule="evenodd"/><path fill="#ffffff" d="m220.39633 76.14173l2.7243958 -5.0078735l2.724411 5.0078735z" fill-rule="evenodd"/><path stroke="#cc0000" stroke-width="1.0" stroke-linejoin="round" stroke-linecap="butt" d="m220.39633 76.14173l2.7243958 -5.0078735l2.724411 5.0078735z" fill-rule="evenodd"/><path fill="#ffffff" d="m236.39633 92.14173l2.7243958 -5.0078735l2.724411 5.0078735z" fill-rule="evenodd"/><path stroke="#cc0000" stroke-width="1.0" stroke-linejoin="round" stroke-linecap="butt" d="m236.39633 92.14173l2.7243958 -5.0078735l2.724411 5.0078735z" fill-rule="evenodd"/><path fill="#ffffff" d="m238.17848 65.7979l2.724411 -5.0078697l2.724411 5.0078697z" fill-rule="evenodd"/><path stroke="#cc0000" stroke-width="1.0" stroke-linejoin="round" stroke-linecap="butt" d="m238.17848 65.7979l2.724411 -5.0078697l2.724411 5.0078697z" fill-rule="evenodd"/><path fill="#ffffff" d="m270.49136 67.52698l4.4409485 -3.5747986l0.5984192 5.6850357z" fill-rule="evenodd"/><path stroke="#cc0000" stroke-width="1.0" stroke-linejoin="round" stroke-linecap="butt" d="m270.49136 67.52698l4.4409485 -3.5747986l0.5984192 5.6850357z" fill-rule="evenodd"/><path fill="#ffffff" d="m225.84514 77.396324l2.724411 -5.0078735l2.724411 5.0078735z" fill-rule="evenodd"/><path stroke="#cc0000" stroke-width="1.0" stroke-linejoin="round" stroke-linecap="butt" d="m225.84514 77.396324l2.724411 -5.0078735l2.724411 5.0078735z" fill-rule="evenodd"/><path fill="#ffffff" d="m187.08136 102.926506l2.724411 -5.0078735l2.724411 5.0078735z" fill-rule="evenodd"/><path stroke="#cc0000" stroke-width="1.0" stroke-linejoin="round" stroke-linecap="butt" d="m187.08136 102.926506l2.724411 -5.0078735l2.724411 5.0078735z" fill-rule="evenodd"/><path fill="#ffffff" d="m270.40158 56.87139l2.7243958 -5.0078735l2.7244263 5.0078735z" fill-rule="evenodd"/><path stroke="#cc0000" stroke-width="1.0" stroke-linejoin="round" stroke-linecap="butt" d="m270.40158 56.87139l2.7243958 -5.0078735l2.7244263 5.0078735z" fill-rule="evenodd"/><path fill="#ffffff" d="m220.39633 116.01575l2.7243958 -5.0078735l2.724411 5.0078735z" fill-rule="evenodd"/><path stroke="#cc0000" stroke-width="1.0" stroke-linejoin="round" stroke-linecap="butt" d="m220.39633 116.01575l2.7243958 -5.0078735l2.724411 5.0078735z" fill-rule="evenodd"/><path fill="#ffffff" d="m170.15486 58.842518l2.724411 -5.0078735l2.7243958 5.0078735z" fill-rule="evenodd"/><path stroke="#cc0000" stroke-width="1.0" stroke-linejoin="round" stroke-linecap="butt" d="m170.15486 58.842518l2.724411 -5.0078735l2.7243958 5.0078735z" fill-rule="evenodd"/><path fill="#ffffff" d="m164.70604 87.2231l2.724411 -5.0078735l2.724411 5.0078735z" fill-rule="evenodd"/><path stroke="#cc0000" stroke-width="1.0" stroke-linejoin="round" stroke-linecap="butt" d="m164.70604 87.2231l2.724411 -5.0078735l2.724411 5.0078735z" fill-rule="evenodd"/><path fill="#ffffff" d="m270.40158 85.1168l0 -5.0078735l5.448822 5.0078735z" fill-rule="evenodd"/><path stroke="#cc0000" stroke-width="1.0" stroke-linejoin="round" stroke-linecap="butt" d="m270.40158 85.1168l0 -5.0078735l5.448822 5.0078735z" fill-rule="evenodd"/><path fill="#ffffff" d="m202.15486 90.84252l2.724411 -5.0078735l2.7243958 5.0078735z" fill-rule="evenodd"/><path stroke="#cc0000" stroke-width="1.0" stroke-linejoin="round" stroke-linecap="butt" d="m202.15486 90.84252l2.724411 -5.0078735l2.7243958 5.0078735z" fill-rule="evenodd"/><path fill="#ffffff" d="m218.15486 106.84252l2.724411 -5.0078735l2.7243958 5.0078735z" fill-rule="evenodd"/><path stroke="#cc0000" stroke-width="1.0" stroke-linejoin="round" stroke-linecap="butt" d="m218.15486 106.84252l2.724411 -5.0078735l2.7243958 5.0078735z" fill-rule="evenodd"/><path fill="#ffffff" d="m234.15486 122.84252l2.724411 -5.0078735l2.7243958 5.0078735z" fill-rule="evenodd"/><path stroke="#cc0000" stroke-width="1.0" stroke-linejoin="round" stroke-linecap="butt" d="m234.15486 122.84252l2.724411 -5.0078735l2.7243958 5.0078735z" fill-rule="evenodd"/><path fill="#ffffff" d="m263.6499 83.93042l4.4409485 -3.5748062l0.5984497 5.6850433z" fill-rule="evenodd"/><path stroke="#cc0000" stroke-width="1.0" stroke-linejoin="round" stroke-linecap="butt" d="m263.6499 83.93042l4.4409485 -3.5748062l0.5984497 5.6850433z" fill-rule="evenodd"/><path fill="#ffffff" d="m292.8127 87.48386l4.4409485 -3.5748062l0.5984192 5.6850433z" fill-rule="evenodd"/><path stroke="#cc0000" stroke-width="1.0" stroke-linejoin="round" stroke-linecap="butt" d="m292.8127 87.48386l4.4409485 -3.5748062l0.5984192 5.6850433z" fill-rule="evenodd"/><path fill="#ffffff" d="m225.84514 131.0105l2.724411 -5.0078735l2.724411 5.0078735z" fill-rule="evenodd"/><path stroke="#cc0000" stroke-width="1.0" stroke-linejoin="round" stroke-linecap="butt" d="m225.84514 131.0105l2.724411 -5.0078735l2.724411 5.0078735z" fill-rule="evenodd"/><path fill="#ffffff" d="m302.7533 61.879265l2.7243958 -5.0078735l2.7243958 5.0078735z" fill-rule="evenodd"/><path stroke="#cc0000" stroke-width="1.0" stroke-linejoin="round" stroke-linecap="butt" d="m302.7533 61.879265l2.7243958 -5.0078735l2.7243958 5.0078735z" fill-rule="evenodd"/><path fill="#ffffff" d="m256.80847 100.33386l4.4409485 -3.5748062l0.5984192 5.6850433z" fill-rule="evenodd"/><path stroke="#cc0000" stroke-width="1.0" stroke-linejoin="round" stroke-linecap="butt" d="m256.80847 100.33386l4.4409485 -3.5748062l0.5984192 5.6850433z" fill-rule="evenodd"/><path fill="#ffffff" d="m191.60367 131.0105l2.724411 -5.0078735l2.724411 5.0078735z" fill-rule="evenodd"/><path stroke="#cc0000" stroke-width="1.0" stroke-linejoin="round" stroke-linecap="butt" d="m191.60367 131.0105l2.724411 -5.0078735l2.724411 5.0078735z" fill-rule="evenodd"/><path fill="#ffffff" d="m199.38846 145.72966l2.7243958 -5.0078735l2.724411 5.0078735z" fill-rule="evenodd"/><path stroke="#cc0000" stroke-width="1.0" stroke-linejoin="round" stroke-linecap="butt" d="m199.38846 145.72966l2.7243958 -5.0078735l2.724411 5.0078735z" fill-rule="evenodd"/><path fill="#ffffff" d="m186.15486 74.84252l2.724411 -5.0078735l2.7243958 5.0078735z" fill-rule="evenodd"/><path stroke="#cc0000" stroke-width="1.0" stroke-linejoin="round" stroke-linecap="butt" d="m186.15486 74.84252l2.724411 -5.0078735l2.7243958 5.0078735z" fill-rule="evenodd"/><path fill="#ffffff" d="m202.15486 90.84252l2.724411 -5.0078735l2.7243958 5.0078735z" fill-rule="evenodd"/><path stroke="#cc0000" stroke-width="1.0" stroke-linejoin="round" stroke-linecap="butt" d="m202.15486 90.84252l2.724411 -5.0078735l2.7243958 5.0078735z" fill-rule="evenodd"/><path fill="#ffffff" d="m218.15486 106.84252l2.724411 -5.0078735l2.7243958 5.0078735z" fill-rule="evenodd"/><path stroke="#cc0000" stroke-width="1.0" stroke-linejoin="round" stroke-linecap="butt" d="m218.15486 106.84252l2.724411 -5.0078735l2.7243958 5.0078735z" fill-rule="evenodd"/><path fill="#ffffff" d="m234.15486 122.84252l2.724411 -5.0078735l2.7243958 5.0078735z" fill-rule="evenodd"/><path stroke="#cc0000" stroke-width="1.0" stroke-linejoin="round" stroke-linecap="butt" d="m234.15486 122.84252l2.724411 -5.0078735l2.7243958 5.0078735z" fill-rule="evenodd"/><path fill="#ffffff" d="m243.12494 122.6895l4.4409485 -3.5748062l0.59843445 5.6850433z" fill-rule="evenodd"/><path stroke="#cc0000" stroke-width="1.0" stroke-linejoin="round" stroke-linecap="butt" d="m243.12494 122.6895l4.4409485 -3.5748062l0.59843445 5.6850433z" fill-rule="evenodd"/><path fill="#ffffff" d="m234.15486 105.54593l2.724411 -5.0078735l2.7243958 5.0078735z" fill-rule="evenodd"/><path stroke="#cc0000" stroke-width="1.0" stroke-linejoin="round" stroke-linecap="butt" d="m234.15486 105.54593l2.724411 -5.0078735l2.7243958 5.0078735z" fill-rule="evenodd"/><path fill="#ffffff" d="m277.27197 106.2808l4.4409485 -3.5747986l0.5984192 5.6850357z" fill-rule="evenodd"/><path stroke="#cc0000" stroke-width="1.0" stroke-linejoin="round" stroke-linecap="butt" d="m277.27197 106.2808l4.4409485 -3.5747986l0.5984192 5.6850357z" fill-rule="evenodd"/><path fill="#ffffff" d="m212.70604 53.834644l2.724411 -5.0078735l2.724411 5.0078735z" fill-rule="evenodd"/><path stroke="#cc0000" stroke-width="1.0" stroke-linejoin="round" stroke-linecap="butt" d="m212.70604 53.834644l2.724411 -5.0078735l2.724411 5.0078735z" fill-rule="evenodd"/><path fill="#ffffff" d="m204.83727 112.94226l2.724411 -5.007881l2.724411 5.007881z" fill-rule="evenodd"/><path stroke="#cc0000" stroke-width="1.0" stroke-linejoin="round" stroke-linecap="butt" d="m204.83727 112.94226l2.724411 -5.007881l2.724411 5.007881z" fill-rule="evenodd"/><path fill="#ffffff" d="m223.60367 154.63518l2.724411 -5.0078735l2.724411 5.0078735z" fill-rule="evenodd"/><path stroke="#cc0000" stroke-width="1.0" stroke-linejoin="round" stroke-linecap="butt" d="m223.60367 154.63518l2.724411 -5.0078735l2.724411 5.0078735z" fill-rule="evenodd"/><path fill="#ffffff" d="m246.64043 164.59842l2.7243958 -5.0078735l2.724411 5.0078735z" fill-rule="evenodd"/><path stroke="#cc0000" stroke-width="1.0" stroke-linejoin="round" stroke-linecap="butt" d="m246.64043 164.59842l2.7243958 -5.0078735l2.724411 5.0078735z" fill-rule="evenodd"/><path fill="#ffffff" d="m231.29396 158.5105l2.724411 -5.0078735l2.724411 5.0078735z" fill-rule="evenodd"/><path stroke="#cc0000" stroke-width="1.0" stroke-linejoin="round" stroke-linecap="butt" d="m231.29396 158.5105l2.724411 -5.0078735l2.724411 5.0078735z" fill-rule="evenodd"/><path fill="#ffffff" d="m254.2406 148.63562l4.4409485 -3.5748138l0.5984192 5.6850433z" fill-rule="evenodd"/><path stroke="#cc0000" stroke-width="1.0" stroke-linejoin="round" stroke-linecap="butt" d="m254.2406 148.63562l4.4409485 -3.5748138l0.5984192 5.6850433z" fill-rule="evenodd"/><path fill="#cc0000" d="m225.84514 105.92257l5.275589 -9.700783l5.2756042 9.700783z" fill-rule="evenodd"/><path stroke="#cc0000" stroke-width="1.0" stroke-linejoin="round" stroke-linecap="butt" d="m225.84514 105.92257l5.275589 -9.700783l5.2756042 9.700783z" fill-rule="evenodd"/><path fill="#ffffff" d="m301.97327 75.754555l4.4409485 -3.5748062l0.5984192 5.6850433z" fill-rule="evenodd"/><path stroke="#cc0000" stroke-width="1.0" stroke-linejoin="round" stroke-linecap="butt" d="m301.97327 75.754555l4.4409485 -3.5748062l0.5984192 5.6850433z" fill-rule="evenodd"/><path fill="#ffffff" d="m310.5814 96.68062l4.4409485 -3.5747986l0.5984192 5.6850357z" fill-rule="evenodd"/><path stroke="#cc0000" stroke-width="1.0" stroke-linejoin="round" stroke-linecap="butt" d="m310.5814 96.68062l4.4409485 -3.5747986l0.5984192 5.6850357z" fill-rule="evenodd"/><path fill="#ffffff" d="m319.1895 117.60669l4.4409485 -3.5748062l0.5984192 5.6850433z" fill-rule="evenodd"/><path stroke="#cc0000" stroke-width="1.0" stroke-linejoin="round" stroke-linecap="butt" d="m319.1895 117.60669l4.4409485 -3.5748062l0.5984192 5.6850433z" fill-rule="evenodd"/><path fill="#ffffff" d="m306.6119 147.76344l4.4409485 -3.5748138l0.5984192 5.6850433z" fill-rule="evenodd"/><path stroke="#cc0000" stroke-width="1.0" stroke-linejoin="round" stroke-linecap="butt" d="m306.6119 147.76344l4.4409485 -3.5748138l0.5984192 5.6850433z" fill-rule="evenodd"/><path fill="#ffffff" d="m266.53937 112.98351l4.4409485 -3.5747986l0.5984497 5.6850357z" fill-rule="evenodd"/><path stroke="#cc0000" stroke-width="1.0" stroke-linejoin="round" stroke-linecap="butt" d="m266.53937 112.98351l4.4409485 -3.5747986l0.5984497 5.6850357z" fill-rule="evenodd"/><path fill="#ffffff" d="m284.3051 125.76074l4.4409485 -3.5747986l0.5984192 5.6850357z" fill-rule="evenodd"/><path stroke="#cc0000" stroke-width="1.0" stroke-linejoin="round" stroke-linecap="butt" d="m284.3051 125.76074l4.4409485 -3.5747986l0.5984192 5.6850357z" fill-rule="evenodd"/><path fill="#ffffff" d="m246.64043 38.351707l2.7243958 -5.0078735l2.724411 5.0078735z" fill-rule="evenodd"/><path stroke="#cc0000" stroke-width="1.0" stroke-linejoin="round" stroke-linecap="butt" d="m246.64043 38.351707l2.7243958 -5.0078735l2.724411 5.0078735z" fill-rule="evenodd"/><path fill="#ffffff" d="m328.95276 38.351707l2.7243958 -5.0078735l2.7244263 5.0078735z" fill-rule="evenodd"/><path stroke="#cc0000" stroke-width="1.0" stroke-linejoin="round" stroke-linecap="butt" d="m328.95276 38.351707l2.7243958 -5.0078735l2.7244263 5.0078735z" fill-rule="evenodd"/><path fill="#ffffff" d="m31.11811 119.04199l0 0c0 -1.3828812 1.2197609 -2.5039368 2.7244072 -2.5039368l0 0c1.5046501 0 2.724411 1.1210556 2.724411 2.5039368l0 0c0 1.3828888 -1.2197609 2.5039368 -2.724411 2.5039368l0 0c-1.5046463 0 -2.7244072 -1.121048 -2.7244072 -2.5039368z" fill-rule="evenodd"/><path stroke="#0000ff" stroke-width="1.0" stroke-linejoin="round" stroke-linecap="butt" d="m31.11811 119.04199l0 0c0 -1.3828812 1.2197609 -2.5039368 2.7244072 -2.5039368l0 0c1.5046501 0 2.724411 1.1210556 2.724411 2.5039368l0 0c0 1.3828888 -1.2197609 2.5039368 -2.724411 2.5039368l0 0c-1.5046463 0 -2.7244072 -1.121048 -2.7244072 -2.5039368z" fill-rule="evenodd"/><path fill="#ffffff" d="m47.11811 135.04199l0 0c0 -1.3828888 1.2197609 -2.5039368 2.7244072 -2.5039368l0 0c1.5046501 0 2.724411 1.121048 2.724411 2.5039368l0 0c0 1.3828888 -1.2197609 2.5039368 -2.724411 2.5039368l0 0c-1.5046463 0 -2.7244072 -1.121048 -2.7244072 -2.5039368z" fill-rule="evenodd"/><path stroke="#0000ff" stroke-width="1.0" stroke-linejoin="round" stroke-linecap="butt" d="m47.11811 135.04199l0 0c0 -1.3828888 1.2197609 -2.5039368 2.7244072 -2.5039368l0 0c1.5046501 0 2.724411 1.121048 2.724411 2.5039368l0 0c0 1.3828888 -1.2197609 2.5039368 -2.724411 2.5039368l0 0c-1.5046463 0 -2.7244072 -1.121048 -2.7244072 -2.5039368z" fill-rule="evenodd"/><path fill="#ffffff" d="m63.11811 151.04199l0 0c0 -1.3828888 1.2197571 -2.5039368 2.724411 -2.5039368l0 0c1.5046463 0 2.724411 1.121048 2.724411 2.5039368l0 0c0 1.3828888 -1.2197647 2.5039368 -2.724411 2.5039368l0 0c-1.5046539 0 -2.724411 -1.121048 -2.724411 -2.5039368z" fill-rule="evenodd"/><path stroke="#0000ff" stroke-width="1.0" stroke-linejoin="round" stroke-linecap="butt" d="m63.11811 151.04199l0 0c0 -1.3828888 1.2197571 -2.5039368 2.724411 -2.5039368l0 0c1.5046463 0 2.724411 1.121048 2.724411 2.5039368l0 0c0 1.3828888 -1.2197647 2.5039368 -2.724411 2.5039368l0 0c-1.5046539 0 -2.724411 -1.121048 -2.724411 -2.5039368z" fill-rule="evenodd"/><path fill="#ffffff" d="m107.68767 123.461945l0 0c0 -1.3828888 1.2197571 -2.5039368 2.7244034 -2.5039368l0 0c1.5046539 0 2.724411 1.121048 2.724411 2.5039368l0 0c0 1.3828812 -1.2197571 2.5039368 -2.724411 2.5039368l0 0c-1.5046463 0 -2.7244034 -1.1210556 -2.7244034 -2.5039368z" fill-rule="evenodd"/><path stroke="#0000ff" stroke-width="1.0" stroke-linejoin="round" stroke-linecap="butt" d="m107.68767 123.461945l0 0c0 -1.3828888 1.2197571 -2.5039368 2.7244034 -2.5039368l0 0c1.5046539 0 2.724411 1.121048 2.724411 2.5039368l0 0c0 1.3828812 -1.2197571 2.5039368 -2.724411 2.5039368l0 0c-1.5046463 0 -2.7244034 -1.1210556 -2.7244034 -2.5039368z" fill-rule="evenodd"/><path fill="#ffffff" d="m20.566929 33.351707l0 0c0 -1.3828869 1.219759 -2.5039387 2.724409 -2.5039387l0 0c1.5046501 0 2.724411 1.1210518 2.724411 2.5039387l0 0c0 1.382885 -1.2197609 2.5039368 -2.724411 2.5039368l0 0c-1.5046501 0 -2.724409 -1.1210518 -2.724409 -2.5039368z" fill-rule="evenodd"/><path stroke="#0000ff" stroke-width="1.0" stroke-linejoin="round" stroke-linecap="butt" d="m20.566929 33.351707l0 0c0 -1.3828869 1.219759 -2.5039387 2.724409 -2.5039387l0 0c1.5046501 0 2.724411 1.1210518 2.724411 2.5039387l0 0c0 1.382885 -1.2197609 2.5039368 -2.724411 2.5039368l0 0c-1.5046501 0 -2.724409 -1.1210518 -2.724409 -2.5039368z" fill-rule="evenodd"/><path fill="#ffffff" d="m107.68767 70.367455l0 0c0 -1.3828888 1.2197571 -2.5039368 2.7244034 -2.5039368l0 0c1.5046539 0 2.724411 1.121048 2.724411 2.5039368l0 0c0 1.3828888 -1.2197571 2.5039368 -2.724411 2.5039368l0 0c-1.5046463 0 -2.7244034 -1.121048 -2.7244034 -2.5039368z" fill-rule="evenodd"/><path stroke="#0000ff" stroke-width="1.0" stroke-linejoin="round" stroke-linecap="butt" d="m107.68767 70.367455l0 0c0 -1.3828888 1.2197571 -2.5039368 2.7244034 -2.5039368l0 0c1.5046539 0 2.724411 1.121048 2.724411 2.5039368l0 0c0 1.3828888 -1.2197571 2.5039368 -2.724411 2.5039368l0 0c-1.5046463 0 -2.7244034 -1.121048 -2.7244034 -2.5039368z" fill-rule="evenodd"/><path fill="#ffffff" d="m48.53018 5.976378l0 0c0 -1.3828864 1.2197609 -2.503937 2.724411 -2.503937l0 0c1.5046501 0 2.724411 1.1210506 2.724411 2.503937l0 0c0 1.3828864 -1.2197609 2.5039372 -2.724411 2.5039372l0 0c-1.5046501 0 -2.724411 -1.1210508 -2.724411 -2.5039372z" fill-rule="evenodd"/><path stroke="#0000ff" stroke-width="1.0" stroke-linejoin="round" stroke-linecap="butt" d="m48.53018 5.976378l0 0c0 -1.3828864 1.2197609 -2.503937 2.724411 -2.503937l0 0c1.5046501 0 2.724411 1.1210506 2.724411 2.503937l0 0c0 1.3828864 -1.2197609 2.5039372 -2.724411 2.5039372l0 0c-1.5046501 0 -2.724411 -1.1210508 -2.724411 -2.5039372z" fill-rule="evenodd"/><path fill="#ffffff" d="m65.25197 111.7231l0 0c0 -1.3828888 1.2197571 -2.5039368 2.724411 -2.5039368l0 0c1.5046463 0 2.724411 1.121048 2.724411 2.5039368l0 0c0 1.3828812 -1.2197647 2.5039368 -2.724411 2.5039368l0 0c-1.5046539 0 -2.724411 -1.1210556 -2.724411 -2.5039368z" fill-rule="evenodd"/><path stroke="#0000ff" stroke-width="1.0" stroke-linejoin="round" stroke-linecap="butt" d="m65.25197 111.7231l0 0c0 -1.3828888 1.2197571 -2.5039368 2.724411 -2.5039368l0 0c1.5046463 0 2.724411 1.121048 2.724411 2.5039368l0 0c0 1.3828812 -1.2197647 2.5039368 -2.724411 2.5039368l0 0c-1.5046539 0 -2.724411 -1.1210556 -2.724411 -2.5039368z" fill-rule="evenodd"/><path fill="#000000" fill-opacity="0.0" d="m160.83464 -0.51968503l4.37796 159.87401" fill-rule="evenodd"/><path stroke="#000000" stroke-width="1.0" stroke-linejoin="round" stroke-linecap="butt" d="m160.83464 -0.51968503l4.37796 159.87401" fill-rule="evenodd"/><path fill="#ffffff" d="m60.669292 185.28346l5.448818 0l0 5.448822l-5.448818 0z" fill-rule="evenodd"/><path stroke="#f1c232" stroke-width="1.0" stroke-linejoin="round" stroke-linecap="butt" d="m60.669292 185.28346l5.448818 0l0 5.448822l-5.448818 0z" fill-rule="evenodd"/><path fill="#ffffff" d="m76.66929 201.28346l5.448822 0l0 5.448822l-5.448822 0z" fill-rule="evenodd"/><path stroke="#f1c232" stroke-width="1.0" stroke-linejoin="round" stroke-linecap="butt" d="m76.66929 201.28346l5.448822 0l0 5.448822l-5.448822 0z" fill-rule="evenodd"/><path fill="#ffffff" d="m92.66929 217.28346l5.448822 0l0 5.448822l-5.448822 0z" fill-rule="evenodd"/><path stroke="#f1c232" stroke-width="1.0" stroke-linejoin="round" stroke-linecap="butt" d="m92.66929 217.28346l5.448822 0l0 5.448822l-5.448822 0z" fill-rule="evenodd"/><path fill="#ffffff" d="m108.66929 233.28346l5.448822 0l0 5.448822l-5.448822 0z" fill-rule="evenodd"/><path stroke="#f1c232" stroke-width="1.0" stroke-linejoin="round" stroke-linecap="butt" d="m108.66929 233.28346l5.448822 0l0 5.448822l-5.448822 0z" fill-rule="evenodd"/><path fill="#ffffff" d="m124.66929 249.28346l5.4488144 0l0 5.448822l-5.4488144 0z" fill-rule="evenodd"/><path stroke="#f1c232" stroke-width="1.0" stroke-linejoin="round" stroke-linecap="butt" d="m124.66929 249.28346l5.4488144 0l0 5.448822l-5.4488144 0z" fill-rule="evenodd"/><path fill="#ffffff" d="m140.6693 265.28348l5.448807 0l0 5.4487915l-5.448807 0z" fill-rule="evenodd"/><path stroke="#f1c232" stroke-width="1.0" stroke-linejoin="round" stroke-linecap="butt" d="m140.6693 265.28348l5.448807 0l0 5.4487915l-5.448807 0z" fill-rule="evenodd"/><path fill="#ffffff" d="m77.937004 231.59842l5.448822 0l0 5.448822l-5.448822 0z" fill-rule="evenodd"/><path stroke="#f1c232" stroke-width="1.0" stroke-linejoin="round" stroke-linecap="butt" d="m77.937004 231.59842l5.448822 0l0 5.448822l-5.448822 0z" fill-rule="evenodd"/><path fill="#ffffff" d="m136.83464 233.28346l5.448822 0l0 5.448822l-5.448822 0z" fill-rule="evenodd"/><path stroke="#f1c232" stroke-width="1.0" stroke-linejoin="round" stroke-linecap="butt" d="m136.83464 233.28346l5.448822 0l0 5.448822l-5.448822 0z" fill-rule="evenodd"/><path fill="#ffffff" d="m159.25722 169.4462l5.448822 0l0 5.448822l-5.448822 0z" fill-rule="evenodd"/><path stroke="#f1c232" stroke-width="1.0" stroke-linejoin="round" stroke-linecap="butt" d="m159.25722 169.4462l5.448822 0l0 5.448822l-5.448822 0z" fill-rule="evenodd"/><path fill="#ffffff" d="m131.38583 210.14961l5.448807 0l0 5.448807l-5.448807 0z" fill-rule="evenodd"/><path stroke="#f1c232" stroke-width="1.0" stroke-linejoin="round" stroke-linecap="butt" d="m131.38583 210.14961l5.448807 0l0 5.448807l-5.448807 0z" fill-rule="evenodd"/><path fill="#ffffff" d="m92.66929 217.28346l5.448822 0l0 5.448822l-5.448822 0z" fill-rule="evenodd"/><path stroke="#f1c232" stroke-width="1.0" stroke-linejoin="round" stroke-linecap="butt" d="m92.66929 217.28346l5.448822 0l0 5.448822l-5.448822 0z" fill-rule="evenodd"/><path fill="#ffffff" d="m108.66929 233.28346l5.448822 0l0 5.448822l-5.448822 0z" fill-rule="evenodd"/><path stroke="#f1c232" stroke-width="1.0" stroke-linejoin="round" stroke-linecap="butt" d="m108.66929 233.28346l5.448822 0l0 5.448822l-5.448822 0z" fill-rule="evenodd"/><path fill="#ffffff" d="m124.66929 249.28346l5.4488144 0l0 5.448822l-5.4488144 0z" fill-rule="evenodd"/><path stroke="#f1c232" stroke-width="1.0" stroke-linejoin="round" stroke-linecap="butt" d="m124.66929 249.28346l5.4488144 0l0 5.448822l-5.4488144 0z" fill-rule="evenodd"/><path fill="#ffffff" d="m65.25197 238.73228l5.448822 0l0 5.448822l-5.448822 0z" fill-rule="evenodd"/><path stroke="#f1c232" stroke-width="1.0" stroke-linejoin="round" stroke-linecap="butt" d="m65.25197 238.73228l5.448822 0l0 5.448822l-5.448822 0z" fill-rule="evenodd"/><path fill="#ffffff" d="m147.38583 217.28346l5.448807 0l0 5.448822l-5.448807 0z" fill-rule="evenodd"/><path stroke="#f1c232" stroke-width="1.0" stroke-linejoin="round" stroke-linecap="butt" d="m147.38583 217.28346l5.448807 0l0 5.448822l-5.448807 0z" fill-rule="evenodd"/><path fill="#ffffff" d="m113.13648 210.14961l5.448822 0l0 5.448807l-5.448822 0z" fill-rule="evenodd"/><path stroke="#f1c232" stroke-width="1.0" stroke-linejoin="round" stroke-linecap="butt" d="m113.13648 210.14961l5.448822 0l0 5.448807l-5.448822 0z" fill-rule="evenodd"/><path fill="#ffffff" d="m152.83464 249.28346l5.448822 0l0 5.448822l-5.448822 0z" fill-rule="evenodd"/><path stroke="#f1c232" stroke-width="1.0" stroke-linejoin="round" stroke-linecap="butt" d="m152.83464 249.28346l5.448822 0l0 5.448822l-5.448822 0z" fill-rule="evenodd"/><path fill="#ffffff" d="m111.11811 179.83464l5.448822 0l0 5.448822l-5.448822 0z" fill-rule="evenodd"/><path stroke="#f1c232" stroke-width="1.0" stroke-linejoin="round" stroke-linecap="butt" d="m111.11811 179.83464l5.448822 0l0 5.448822l-5.448822 0z" fill-rule="evenodd"/><path fill="#ffffff" d="m158.28346 227.83464l5.448822 0l0 5.448822l-5.448822 0z" fill-rule="evenodd"/><path stroke="#f1c232" stroke-width="1.0" stroke-linejoin="round" stroke-linecap="butt" d="m158.28346 227.83464l5.448822 0l0 5.448822l-5.448822 0z" fill-rule="evenodd"/><path fill="#ffffff" d="m76.66929 201.28346l5.448822 0l0 5.448822l-5.448822 0z" fill-rule="evenodd"/><path stroke="#f1c232" stroke-width="1.0" stroke-linejoin="round" stroke-linecap="butt" d="m76.66929 201.28346l5.448822 0l0 5.448822l-5.448822 0z" fill-rule="evenodd"/><path fill="#ffffff" d="m92.66929 217.28346l5.448822 0l0 5.448822l-5.448822 0z" fill-rule="evenodd"/><path stroke="#f1c232" stroke-width="1.0" stroke-linejoin="round" stroke-linecap="butt" d="m92.66929 217.28346l5.448822 0l0 5.448822l-5.448822 0z" fill-rule="evenodd"/><path fill="#ffffff" d="m108.66929 233.28346l5.448822 0l0 5.448822l-5.448822 0z" fill-rule="evenodd"/><path stroke="#f1c232" stroke-width="1.0" stroke-linejoin="round" stroke-linecap="butt" d="m108.66929 233.28346l5.448822 0l0 5.448822l-5.448822 0z" fill-rule="evenodd"/><path fill="#ffffff" d="m124.66929 249.28346l5.4488144 0l0 5.448822l-5.4488144 0z" fill-rule="evenodd"/><path stroke="#f1c232" stroke-width="1.0" stroke-linejoin="round" stroke-linecap="butt" d="m124.66929 249.28346l5.4488144 0l0 5.448822l-5.4488144 0z" fill-rule="evenodd"/><path fill="#ffffff" d="m140.6693 265.28348l5.448807 0l0 5.4487915l-5.448807 0z" fill-rule="evenodd"/><path stroke="#f1c232" stroke-width="1.0" stroke-linejoin="round" stroke-linecap="butt" d="m140.6693 265.28348l5.448807 0l0 5.4487915l-5.448807 0z" fill-rule="evenodd"/><path fill="#ffffff" d="m93.937004 156.89502l5.448822 0l0 5.448807l-5.448822 0z" fill-rule="evenodd"/><path stroke="#f1c232" stroke-width="1.0" stroke-linejoin="round" stroke-linecap="butt" d="m93.937004 156.89502l5.448822 0l0 5.448807l-5.448822 0z" fill-rule="evenodd"/><path fill="#ffffff" d="m93.937004 247.59842l5.448822 0l0 5.448822l-5.448822 0z" fill-rule="evenodd"/><path stroke="#f1c232" stroke-width="1.0" stroke-linejoin="round" stroke-linecap="butt" d="m93.937004 247.59842l5.448822 0l0 5.448822l-5.448822 0z" fill-rule="evenodd"/><path fill="#ffffff" d="m152.83464 249.28346l5.448822 0l0 5.448822l-5.448822 0z" fill-rule="evenodd"/><path stroke="#f1c232" stroke-width="1.0" stroke-linejoin="round" stroke-linecap="butt" d="m152.83464 249.28346l5.448822 0l0 5.448822l-5.448822 0z" fill-rule="evenodd"/><path fill="#ffffff" d="m175.25722 185.4462l5.448822 0l0 5.448822l-5.448822 0z" fill-rule="evenodd"/><path stroke="#f1c232" stroke-width="1.0" stroke-linejoin="round" stroke-linecap="butt" d="m175.25722 185.4462l5.448822 0l0 5.448822l-5.448822 0z" fill-rule="evenodd"/><path fill="#ffffff" d="m147.38583 226.14961l5.448807 0l0 5.448807l-5.448807 0z" fill-rule="evenodd"/><path stroke="#f1c232" stroke-width="1.0" stroke-linejoin="round" stroke-linecap="butt" d="m147.38583 226.14961l5.448807 0l0 5.448807l-5.448807 0z" fill-rule="evenodd"/><path fill="#ffffff" d="m108.66929 233.28346l5.448822 0l0 5.448822l-5.448822 0z" fill-rule="evenodd"/><path stroke="#f1c232" stroke-width="1.0" stroke-linejoin="round" stroke-linecap="butt" d="m108.66929 233.28346l5.448822 0l0 5.448822l-5.448822 0z" fill-rule="evenodd"/><path fill="#ffffff" d="m124.66929 249.28346l5.4488144 0l0 5.448822l-5.4488144 0z" fill-rule="evenodd"/><path stroke="#f1c232" stroke-width="1.0" stroke-linejoin="round" stroke-linecap="butt" d="m124.66929 249.28346l5.4488144 0l0 5.448822l-5.4488144 0z" fill-rule="evenodd"/><path fill="#ffffff" d="m140.6693 265.28348l5.448807 0l0 5.4487915l-5.448807 0z" fill-rule="evenodd"/><path stroke="#f1c232" stroke-width="1.0" stroke-linejoin="round" stroke-linecap="butt" d="m140.6693 265.28348l5.448807 0l0 5.4487915l-5.448807 0z" fill-rule="evenodd"/><path fill="#ffffff" d="m81.25197 254.73228l5.448822 0l0 5.448807l-5.448822 0z" fill-rule="evenodd"/><path stroke="#f1c232" stroke-width="1.0" stroke-linejoin="round" stroke-linecap="butt" d="m81.25197 254.73228l5.448822 0l0 5.448807l-5.448822 0z" fill-rule="evenodd"/><path fill="#ffffff" d="m159.25722 233.28346l5.448822 0l0 5.448822l-5.448822 0z" fill-rule="evenodd"/><path stroke="#f1c232" stroke-width="1.0" stroke-linejoin="round" stroke-linecap="butt" d="m159.25722 233.28346l5.448822 0l0 5.448822l-5.448822 0z" fill-rule="evenodd"/><path fill="#ffffff" d="m129.13649 226.14961l5.448807 0l0 5.448807l-5.448807 0z" fill-rule="evenodd"/><path stroke="#f1c232" stroke-width="1.0" stroke-linejoin="round" stroke-linecap="butt" d="m129.13649 226.14961l5.448807 0l0 5.448807l-5.448807 0z" fill-rule="evenodd"/><path fill="#ffffff" d="m88.79002 174.69029l5.448822 0l0 5.448822l-5.448822 0z" fill-rule="evenodd"/><path stroke="#f1c232" stroke-width="1.0" stroke-linejoin="round" stroke-linecap="butt" d="m88.79002 174.69029l5.448822 0l0 5.448822l-5.448822 0z" fill-rule="evenodd"/><path fill="#ffffff" d="m127.11811 195.83464l5.4488144 0l0 5.448822l-5.4488144 0z" fill-rule="evenodd"/><path stroke="#f1c232" stroke-width="1.0" stroke-linejoin="round" stroke-linecap="butt" d="m127.11811 195.83464l5.4488144 0l0 5.448822l-5.4488144 0z" fill-rule="evenodd"/><path fill="#ffffff" d="m159.25722 201.36482l5.448822 0l0 5.448822l-5.448822 0z" fill-rule="evenodd"/><path stroke="#f1c232" stroke-width="1.0" stroke-linejoin="round" stroke-linecap="butt" d="m159.25722 201.36482l5.448822 0l0 5.448822l-5.448822 0z" fill-rule="evenodd"/><path fill="#ffffff" d="m78.81591 209.3541l-1.8267746 5.13385l-5.1338577 -1.826767l1.8267746 -5.1338654z" fill-rule="evenodd"/><path stroke="#f1c232" stroke-width="1.0" stroke-linejoin="round" stroke-linecap="butt" d="m78.81591 209.3541l-1.8267746 5.13385l-5.1338577 -1.826767l1.8267746 -5.1338654z" fill-rule="evenodd"/><path fill="#ffffff" d="m58.351955 219.00948l-1.8267708 5.1338654l-5.1338577 -1.826767l1.8267708 -5.1338654z" fill-rule="evenodd"/><path stroke="#f1c232" stroke-width="1.0" stroke-linejoin="round" stroke-linecap="butt" d="m58.351955 219.00948l-1.8267708 5.1338654l-5.1338577 -1.826767l1.8267708 -5.1338654z" fill-rule="evenodd"/><path fill="#ffffff" d="m37.888 228.66487l-1.8267708 5.1338654l-5.1338596 -1.8267822l1.8267727 -5.13385z" fill-rule="evenodd"/><path stroke="#f1c232" stroke-width="1.0" stroke-linejoin="round" stroke-linecap="butt" d="m37.888 228.66487l-1.8267708 5.1338654l-5.1338596 -1.8267822l1.8267727 -5.13385z" fill-rule="evenodd"/><path fill="#ffffff" d="m17.424046 238.32027l-1.8267717 5.13385l-5.1338577 -1.826767l1.8267717 -5.1338654z" fill-rule="evenodd"/><path stroke="#f1c232" stroke-width="1.0" stroke-linejoin="round" stroke-linecap="butt" d="m17.424046 238.32027l-1.8267717 5.13385l-5.1338577 -1.826767l1.8267717 -5.1338654z" fill-rule="evenodd"/><path fill="#ffffff" d="m114.873474 283.51633l-1.826767 5.13385l-5.1338577 -1.8267517l1.826767 -5.13385z" fill-rule="evenodd"/><path stroke="#f1c232" stroke-width="1.0" stroke-linejoin="round" stroke-linecap="butt" d="m114.873474 283.51633l-1.826767 5.13385l-5.1338577 -1.8267517l1.826767 -5.13385z" fill-rule="evenodd"/><path fill="#ffffff" d="m153.59062 192.56018l-1.826767 5.13385l-5.1338654 -1.826767l1.8267822 -5.1338654z" fill-rule="evenodd"/><path stroke="#f1c232" stroke-width="1.0" stroke-linejoin="round" stroke-linecap="butt" d="m153.59062 192.56018l-1.826767 5.13385l-5.1338654 -1.826767l1.8267822 -5.1338654z" fill-rule="evenodd"/><path fill="#ffffff" d="m29.390427 209.96329l-1.8267727 5.13385l-5.1338577 -1.826767l1.8267708 -5.1338654z" fill-rule="evenodd"/><path stroke="#f1c232" stroke-width="1.0" stroke-linejoin="round" stroke-linecap="butt" d="m29.390427 209.96329l-1.8267727 5.13385l-5.1338577 -1.826767l1.8267708 -5.1338654z" fill-rule="evenodd"/><path fill="#ffffff" d="m137.59048 281.68335l-1.826767 5.13385l-5.13385 -1.8267822l1.826767 -5.13385z" fill-rule="evenodd"/><path stroke="#f1c232" stroke-width="1.0" stroke-linejoin="round" stroke-linecap="butt" d="m137.59048 281.68335l-1.826767 5.13385l-5.13385 -1.8267822l1.826767 -5.13385z" fill-rule="evenodd"/><path fill="#ffffff" d="m107.267746 264.8306l-1.826767 5.1338806l-5.1338577 -1.8267822l1.826767 -5.13385z" fill-rule="evenodd"/><path stroke="#f1c232" stroke-width="1.0" stroke-linejoin="round" stroke-linecap="butt" d="m107.267746 264.8306l-1.826767 5.1338806l-5.1338577 -1.8267822l1.826767 -5.13385z" fill-rule="evenodd"/><path fill="#ffffff" d="m66.87449 167.76233l-1.8267746 5.13385l-5.1338577 -1.826767l1.8267708 -5.1338654z" fill-rule="evenodd"/><path stroke="#f1c232" stroke-width="1.0" stroke-linejoin="round" stroke-linecap="butt" d="m66.87449 167.76233l-1.8267746 5.13385l-5.1338577 -1.826767l1.8267708 -5.1338654z" fill-rule="evenodd"/><path fill="#ffffff" d="m37.888 228.66487l-1.8267708 5.1338654l-5.1338596 -1.8267822l1.8267727 -5.13385z" fill-rule="evenodd"/><path stroke="#f1c232" stroke-width="1.0" stroke-linejoin="round" stroke-linecap="butt" d="m37.888 228.66487l-1.8267708 5.1338654l-5.1338596 -1.8267822l1.8267727 -5.13385z" fill-rule="evenodd"/><path fill="#ffffff" d="m17.424046 238.32027l-1.8267717 5.13385l-5.1338577 -1.826767l1.8267717 -5.1338654z" fill-rule="evenodd"/><path stroke="#f1c232" stroke-width="1.0" stroke-linejoin="round" stroke-linecap="butt" d="m17.424046 238.32027l-1.8267717 5.13385l-5.1338577 -1.826767l1.8267717 -5.1338654z" fill-rule="evenodd"/><path fill="#ffffff" d="m133.3223 238.78668l-1.826767 5.13385l-5.1338654 -1.826767l1.826767 -5.1338654z" fill-rule="evenodd"/><path stroke="#f1c232" stroke-width="1.0" stroke-linejoin="round" stroke-linecap="butt" d="m133.3223 238.78668l-1.826767 5.13385l-5.1338654 -1.826767l1.826767 -5.1338654z" fill-rule="evenodd"/><path fill="#ffffff" d="m26.960424 195.61417l-1.8267727 5.13385l-5.1338577 -1.826767l1.8267708 -5.1338654z" fill-rule="evenodd"/><path stroke="#f1c232" stroke-width="1.0" stroke-linejoin="round" stroke-linecap="butt" d="m26.960424 195.61417l-1.8267727 5.13385l-5.1338577 -1.826767l1.8267708 -5.1338654z" fill-rule="evenodd"/><path fill="#ffffff" d="m122.771355 224.55939l-1.8267746 5.1338654l-5.1338577 -1.8267822l1.8267746 -5.13385z" fill-rule="evenodd"/><path stroke="#f1c232" stroke-width="1.0" stroke-linejoin="round" stroke-linecap="butt" d="m122.771355 224.55939l-1.8267746 5.1338654l-5.1338577 -1.8267822l1.8267746 -5.13385z" fill-rule="evenodd"/><path fill="#ffffff" d="m44.81805 240.55925l-1.8267708 5.1338654l-5.1338577 -1.826767l1.8267708 -5.1338654z" fill-rule="evenodd"/><path stroke="#f1c232" stroke-width="1.0" stroke-linejoin="round" stroke-linecap="butt" d="m44.81805 240.55925l-1.8267708 5.1338654l-5.1338577 -1.826767l1.8267708 -5.1338654z" fill-rule="evenodd"/><path fill="#ffffff" d="m139.5281 288.7718l-1.826767 5.1338806l-5.1338654 -1.8267822l1.8267822 -5.13385z" fill-rule="evenodd"/><path stroke="#f1c232" stroke-width="1.0" stroke-linejoin="round" stroke-linecap="butt" d="m139.5281 288.7718l-1.826767 5.1338806l-5.1338654 -1.8267822l1.8267822 -5.13385z" fill-rule="evenodd"/><path fill="#ffffff" d="m66.90452 258.67844l-1.826767 5.1338806l-5.1338615 -1.8267822l1.8267708 -5.13385z" fill-rule="evenodd"/><path stroke="#f1c232" stroke-width="1.0" stroke-linejoin="round" stroke-linecap="butt" d="m66.90452 258.67844l-1.826767 5.1338806l-5.1338615 -1.8267822l1.8267708 -5.13385z" fill-rule="evenodd"/><path fill="#ffffff" d="m102.99405 199.52043l-1.8267746 5.1338654l-5.1338577 -1.826767l1.8267746 -5.1338654z" fill-rule="evenodd"/><path stroke="#f1c232" stroke-width="1.0" stroke-linejoin="round" stroke-linecap="butt" d="m102.99405 199.52043l-1.8267746 5.1338654l-5.1338577 -1.826767l1.8267746 -5.1338654z" fill-rule="evenodd"/><path fill="#000000" fill-opacity="0.0" d="m165.05774 158.86351l22.29921 30.173233" fill-rule="evenodd"/><path stroke="#000000" stroke-width="1.0" stroke-linejoin="round" stroke-linecap="butt" d="m165.05774 158.86351l22.29921 30.173233" fill-rule="evenodd"/><path fill="#000000" fill-opacity="0.0" d="m187.23097 188.77428l-37.669296 114.17323" fill-rule="evenodd"/><path stroke="#000000" stroke-width="1.0" stroke-linejoin="round" stroke-linecap="butt" d="m187.23097 188.77428l-37.669296 114.17323" fill-rule="evenodd"/><path fill="#000000" fill-opacity="0.0" d="m164.78477 159.7769l-165.82677 -10.771652" fill-rule="evenodd"/><path stroke="#000000" stroke-width="1.0" stroke-linejoin="round" stroke-linecap="butt" d="m164.78477 159.7769l-165.82677 -10.771652" fill-rule="evenodd"/><path fill="#ffffff" d="m74.425446 228.9045l-1.8267746 5.1338654l-5.1338577 -1.8267822l1.8267746 -5.13385z" fill-rule="evenodd"/><path stroke="#f1c232" stroke-width="1.0" stroke-linejoin="round" stroke-linecap="butt" d="m74.425446 228.9045l-1.8267746 5.1338654l-5.1338577 -1.8267822l1.8267746 -5.13385z" fill-rule="evenodd"/><path fill="#ffffff" d="m118.53568 196.06198l-1.8267746 5.13385l-5.1338577 -1.826767l1.8267746 -5.1338654z" fill-rule="evenodd"/><path stroke="#f1c232" stroke-width="1.0" stroke-linejoin="round" stroke-linecap="butt" d="m118.53568 196.06198l-1.8267746 5.13385l-5.1338577 -1.826767l1.8267746 -5.1338654z" fill-rule="evenodd"/><path fill="#ffffff" d="m44.819145 160.43993l-1.8267708 5.1338654l-5.1338577 -1.8267822l1.8267708 -5.13385z" fill-rule="evenodd"/><path stroke="#f1c232" stroke-width="1.0" stroke-linejoin="round" stroke-linecap="butt" d="m44.819145 160.43993l-1.8267708 5.1338654l-5.1338577 -1.8267822l1.8267708 -5.13385z" fill-rule="evenodd"/><path fill="#ffffff" d="m139.5278 172.7575l-1.826767 5.1338654l-5.13385 -1.826767l1.826767 -5.1338654z" fill-rule="evenodd"/><path stroke="#f1c232" stroke-width="1.0" stroke-linejoin="round" stroke-linecap="butt" d="m139.5278 172.7575l-1.826767 5.1338654l-5.13385 -1.826767l1.826767 -5.1338654z" fill-rule="evenodd"/><path fill="#ffffff" d="m201.86122 105.59839l4.440933 -3.5748062l0.59843445 5.6850433z" fill-rule="evenodd"/><path stroke="#cc0000" stroke-width="1.0" stroke-linejoin="round" stroke-linecap="butt" d="m201.86122 105.59839l4.440933 -3.5748062l0.59843445 5.6850433z" fill-rule="evenodd"/><path fill="#ffffff" d="m309.27197 138.2808l4.4409485 -3.5748138l0.5984192 5.6850433z" fill-rule="evenodd"/><path stroke="#cc0000" stroke-width="1.0" stroke-linejoin="round" stroke-linecap="butt" d="m309.27197 138.2808l4.4409485 -3.5748138l0.5984192 5.6850433z" fill-rule="evenodd"/><path fill="#ffffff" d="m206.1788 64.553764l4.4409485 -3.5747986l0.5984192 5.6850357z" fill-rule="evenodd"/><path stroke="#cc0000" stroke-width="1.0" stroke-linejoin="round" stroke-linecap="butt" d="m206.1788 64.553764l4.4409485 -3.5747986l0.5984192 5.6850357z" fill-rule="evenodd"/><path fill="#ffffff" d="m176.36516 121.59839l4.440933 -3.5748062l0.59843445 5.6850433z" fill-rule="evenodd"/><path stroke="#cc0000" stroke-width="1.0" stroke-linejoin="round" stroke-linecap="butt" d="m176.36516 121.59839l4.440933 -3.5748062l0.59843445 5.6850433z" fill-rule="evenodd"/><path fill="#ffffff" d="m197.0515 154.2808l4.4409485 -3.5748138l0.5984192 5.6850433z" fill-rule="evenodd"/><path stroke="#cc0000" stroke-width="1.0" stroke-linejoin="round" stroke-linecap="butt" d="m197.0515 154.2808l4.4409485 -3.5748138l0.5984192 5.6850433z" fill-rule="evenodd"/><path fill="#ffffff" d="m213.28873 203.69962l3.480301 -2.5263824l3.4803162 2.5263824l-1.329361 4.0877686l-4.301895 0z" fill-rule="evenodd"/><path stroke="#9900ff" stroke-width="1.0" stroke-linejoin="round" stroke-linecap="butt" d="m213.28873 203.69962l3.480301 -2.5263824l3.4803162 2.5263824l-1.329361 4.0877686l-4.301895 0z" fill-rule="evenodd"/><path fill="#ffffff" d="m229.28873 219.69962l3.480301 -2.5263824l3.4803162 2.5263824l-1.329361 4.0877686l-4.301895 0z" fill-rule="evenodd"/><path stroke="#9900ff" stroke-width="1.0" stroke-linejoin="round" stroke-linecap="butt" d="m229.28873 219.69962l3.480301 -2.5263824l3.4803162 2.5263824l-1.329361 4.0877686l-4.301895 0z" fill-rule="evenodd"/><path fill="#ffffff" d="m237.85565 191.56313l3.480301 -2.5263824l3.4803162 2.5263824l-1.329361 4.087784l-4.301895 0z" fill-rule="evenodd"/><path stroke="#9900ff" stroke-width="1.0" stroke-linejoin="round" stroke-linecap="butt" d="m237.85565 191.56313l3.480301 -2.5263824l3.4803162 2.5263824l-1.329361 4.087784l-4.301895 0z" fill-rule="evenodd"/><path fill="#ffffff" d="m253.85565 207.56313l3.4803162 -2.5263824l3.4802856 2.5263824l-1.3293457 4.087784l-4.301895 0z" fill-rule="evenodd"/><path stroke="#9900ff" stroke-width="1.0" stroke-linejoin="round" stroke-linecap="butt" d="m253.85565 207.56313l3.4803162 -2.5263824l3.4802856 2.5263824l-1.3293457 4.087784l-4.301895 0z" fill-rule="evenodd"/><path fill="#ffffff" d="m227.64043 203.69962l3.480301 -2.5263824l3.4803162 2.5263824l-1.329361 4.0877686l-4.301895 0z" fill-rule="evenodd"/><path stroke="#9900ff" stroke-width="1.0" stroke-linejoin="round" stroke-linecap="butt" d="m227.64043 203.69962l3.480301 -2.5263824l3.4803162 2.5263824l-1.329361 4.0877686l-4.301895 0z" fill-rule="evenodd"/><path fill="#ffffff" d="m192.69292 207.56313l3.4803162 -2.5263824l3.480301 2.5263824l-1.329361 4.087784l-4.301895 0z" fill-rule="evenodd"/><path stroke="#9900ff" stroke-width="1.0" stroke-linejoin="round" stroke-linecap="butt" d="m192.69292 207.56313l3.4803162 -2.5263824l3.480301 2.5263824l-1.329361 4.087784l-4.301895 0z" fill-rule="evenodd"/><path fill="#ffffff" d="m206.17848 225.4319l3.4803162 -2.5263824l3.480301 2.5263824l-1.329361 4.0877686l-4.301895 0z" fill-rule="evenodd"/><path stroke="#9900ff" stroke-width="1.0" stroke-linejoin="round" stroke-linecap="butt" d="m206.17848 225.4319l3.4803162 -2.5263824l3.480301 2.5263824l-1.329361 4.0877686l-4.301895 0z" fill-rule="evenodd"/><path fill="#ffffff" d="m222.17848 241.4319l3.4803162 -2.5263824l3.480301 2.5263824l-1.329361 4.0877686l-4.301895 0z" fill-rule="evenodd"/><path stroke="#9900ff" stroke-width="1.0" stroke-linejoin="round" stroke-linecap="butt" d="m222.17848 241.4319l3.4803162 -2.5263824l3.480301 2.5263824l-1.329361 4.0877686l-4.301895 0z" fill-rule="evenodd"/><path fill="#ffffff" d="m174.50131 249.54213l3.4803162 -2.5263824l3.480301 2.5263824l-1.329361 4.0877686l-4.301895 0z" fill-rule="evenodd"/><path stroke="#9900ff" stroke-width="1.0" stroke-linejoin="round" stroke-linecap="butt" d="m174.50131 249.54213l3.4803162 -2.5263824l3.480301 2.5263824l-1.329361 4.0877686l-4.301895 0z" fill-rule="evenodd"/><path fill="#ffffff" d="m203.14961 193.4319l3.4803162 -2.5263824l3.480301 2.5263824l-1.329361 4.0877686l-4.301895 0z" fill-rule="evenodd"/><path stroke="#9900ff" stroke-width="1.0" stroke-linejoin="round" stroke-linecap="butt" d="m203.14961 193.4319l3.4803162 -2.5263824l3.480301 2.5263824l-1.329361 4.0877686l-4.301895 0z" fill-rule="evenodd"/><path fill="#ffffff" d="m222.84778 190.7731l3.480301 -2.5263824l3.4803162 2.5263824l-1.329361 4.0877686l-4.301895 0z" fill-rule="evenodd"/><path stroke="#9900ff" stroke-width="1.0" stroke-linejoin="round" stroke-linecap="butt" d="m222.84778 190.7731l3.480301 -2.5263824l3.4803162 2.5263824l-1.329361 4.0877686l-4.301895 0z" fill-rule="evenodd"/><path fill="#ffffff" d="m213.28873 259.55002l3.480301 -2.5263977l3.4803162 2.5263977l-1.329361 4.0877686l-4.301895 0z" fill-rule="evenodd"/><path stroke="#9900ff" stroke-width="1.0" stroke-linejoin="round" stroke-linecap="butt" d="m213.28873 259.55002l3.480301 -2.5263977l3.4803162 2.5263977l-1.329361 4.0877686l-4.301895 0z" fill-rule="evenodd"/><path fill="#ffffff" d="m235.64043 225.4319l3.480301 -2.5263824l3.4803162 2.5263824l-1.329361 4.0877686l-4.301895 0z" fill-rule="evenodd"/><path stroke="#9900ff" stroke-width="1.0" stroke-linejoin="round" stroke-linecap="butt" d="m235.64043 225.4319l3.480301 -2.5263824l3.4803162 2.5263824l-1.329361 4.0877686l-4.301895 0z" fill-rule="evenodd"/><path fill="#ffffff" d="m194.43832 246.70749l3.4803162 -2.5263824l3.480301 2.5263824l-1.329361 4.0877686l-4.301895 0z" fill-rule="evenodd"/><path stroke="#9900ff" stroke-width="1.0" stroke-linejoin="round" stroke-linecap="butt" d="m194.43832 246.70749l3.4803162 -2.5263824l3.480301 2.5263824l-1.329361 4.0877686l-4.301895 0z" fill-rule="evenodd"/><path fill="#ffffff" d="m197.7948 227.61978l-2.5649261 3.4454346l-4.0807343 -1.3666992l0.042877197 -4.2901306l4.107239 -1.284729z" fill-rule="evenodd"/><path stroke="#9900ff" stroke-width="1.0" stroke-linejoin="round" stroke-linecap="butt" d="m197.7948 227.61978l-2.5649261 3.4454346l-4.0807343 -1.3666992l0.042877197 -4.2901306l4.107239 -1.284729z" fill-rule="evenodd"/><path fill="#ffffff" d="m220.65454 225.91647l-2.564911 3.4454498l-4.0807495 -1.3667145l0.042877197 -4.2901154l4.107239 -1.284729z" fill-rule="evenodd"/><path stroke="#9900ff" stroke-width="1.0" stroke-linejoin="round" stroke-linecap="butt" d="m220.65454 225.91647l-2.564911 3.4454498l-4.0807495 -1.3667145l0.042877197 -4.2901154l4.107239 -1.284729z" fill-rule="evenodd"/><path fill="#ffffff" d="m192.43721 267.71252l-2.564911 3.4454346l-4.0807495 -1.3666992l0.042877197 -4.2901306l4.107239 -1.284729z" fill-rule="evenodd"/><path stroke="#9900ff" stroke-width="1.0" stroke-linejoin="round" stroke-linecap="butt" d="m192.43721 267.71252l-2.564911 3.4454346l-4.0807495 -1.3666992l0.042877197 -4.2901306l4.107239 -1.284729z" fill-rule="evenodd"/><path fill="#ffffff" d="m233.71822 258.21918l-2.564911 3.445465l-4.0807495 -1.3667297l0.042877197 -4.2901l4.107239 -1.2847443z" fill-rule="evenodd"/><path stroke="#9900ff" stroke-width="1.0" stroke-linejoin="round" stroke-linecap="butt" d="m233.71822 258.21918l-2.564911 3.445465l-4.0807495 -1.3667297l0.042877197 -4.2901l4.107239 -1.2847443z" fill-rule="evenodd"/><path fill="#ffffff" d="m249.04254 239.67712l-2.564911 3.4454498l-4.0807495 -1.3667145l0.042877197 -4.2901306l4.107239 -1.284729z" fill-rule="evenodd"/><path stroke="#9900ff" stroke-width="1.0" stroke-linejoin="round" stroke-linecap="butt" d="m249.04254 239.67712l-2.564911 3.4454498l-4.0807495 -1.3667145l0.042877197 -4.2901306l4.107239 -1.284729z" fill-rule="evenodd"/><path fill="#ffffff" d="m249.04155 247.88646l-2.564911 3.4454498l-4.0807495 -1.3667145l0.042877197 -4.2901154l4.107239 -1.284729z" fill-rule="evenodd"/><path stroke="#9900ff" stroke-width="1.0" stroke-linejoin="round" stroke-linecap="butt" d="m249.04155 247.88646l-2.564911 3.4454498l-4.0807495 -1.3667145l0.042877197 -4.2901154l4.107239 -1.284729z" fill-rule="evenodd"/><path fill="#ffffff" d="m164.56622 290.1164l-2.564911 3.445465l-4.0807495 -1.3667297l0.042877197 -4.2901l4.107239 -1.284729z" fill-rule="evenodd"/><path stroke="#9900ff" stroke-width="1.0" stroke-linejoin="round" stroke-linecap="butt" d="m164.56622 290.1164l-2.564911 3.445465l-4.0807495 -1.3667297l0.042877197 -4.2901l4.107239 -1.284729z" fill-rule="evenodd"/><path fill="#ffffff" d="m237.57617 184.89809l-2.564911 3.4454498l-4.0807495 -1.3667145l0.042877197 -4.2901154l4.107239 -1.284729z" fill-rule="evenodd"/><path stroke="#9900ff" stroke-width="1.0" stroke-linejoin="round" stroke-linecap="butt" d="m237.57617 184.89809l-2.564911 3.4454498l-4.0807495 -1.3667145l0.042877197 -4.2901154l4.107239 -1.284729z" fill-rule="evenodd"/><path fill="#ffffff" d="m260.27026 220.3686l-2.564911 3.4454498l-4.0807495 -1.3667145l0.042877197 -4.2901154l4.107239 -1.2847443z" fill-rule="evenodd"/><path stroke="#9900ff" stroke-width="1.0" stroke-linejoin="round" stroke-linecap="butt" d="m260.27026 220.3686l-2.564911 3.4454498l-4.0807495 -1.3667145l0.042877197 -4.2901154l4.107239 -1.2847443z" fill-rule="evenodd"/><path fill="#ffffff" d="m271.4025 209.82329l-0.084991455 -4.294037l4.0534973 -1.4067383l2.590149 3.4246216l-2.4526672 3.5232697z" fill-rule="evenodd"/><path stroke="#9900ff" stroke-width="1.0" stroke-linejoin="round" stroke-linecap="butt" d="m271.4025 209.82329l-0.084991455 -4.294037l4.0534973 -1.4067383l2.590149 3.4246216l-2.4526672 3.5232697z" fill-rule="evenodd"/><path fill="#ffffff" d="m262.8843 232.05801l-0.08496094 -4.294037l4.053467 -1.4067383l2.5901794 3.4246216l-2.4526672 3.5232697z" fill-rule="evenodd"/><path stroke="#9900ff" stroke-width="1.0" stroke-linejoin="round" stroke-linecap="butt" d="m262.8843 232.05801l-0.08496094 -4.294037l4.053467 -1.4067383l2.5901794 3.4246216l-2.4526672 3.5232697z" fill-rule="evenodd"/><path fill="#ffffff" d="m285.16055 228.087l-0.08496094 -4.294037l4.053467 -1.4067383l2.5901794 3.4246216l-2.4526672 3.5232697z" fill-rule="evenodd"/><path stroke="#9900ff" stroke-width="1.0" stroke-linejoin="round" stroke-linecap="butt" d="m285.16055 228.087l-0.08496094 -4.294037l4.053467 -1.4067383l2.5901794 3.4246216l-2.4526672 3.5232697z" fill-rule="evenodd"/><path fill="#ffffff" d="m211.7525 287.57492l-0.0849762 -4.294037l4.053482 -1.4067688l2.5901642 3.424652l-2.4526672 3.5232544z" fill-rule="evenodd"/><path stroke="#9900ff" stroke-width="1.0" stroke-linejoin="round" stroke-linecap="butt" d="m211.7525 287.57492l-0.0849762 -4.294037l4.053482 -1.4067688l2.5901642 3.424652l-2.4526672 3.5232544z" fill-rule="evenodd"/><path fill="#ffffff" d="m279.7377 207.89255l-0.084991455 -4.294037l4.053467 -1.4067383l2.5901794 3.4246216l-2.4526672 3.5232697z" fill-rule="evenodd"/><path stroke="#9900ff" stroke-width="1.0" stroke-linejoin="round" stroke-linecap="butt" d="m279.7377 207.89255l-0.084991455 -4.294037l4.053467 -1.4067383l2.5901794 3.4246216l-2.4526672 3.5232697z" fill-rule="evenodd"/><path fill="#ffffff" d="m271.56662 220.4599l1.3509827 4.0807343l-3.4612122 2.564911l-3.4900818 -2.4955292l1.3041992 -4.107239z" fill-rule="evenodd"/><path stroke="#9900ff" stroke-width="1.0" stroke-linejoin="round" stroke-linecap="butt" d="m271.56662 220.4599l1.3509827 4.0807343l-3.4612122 2.564911l-3.4900818 -2.4955292l1.3041992 -4.107239z" fill-rule="evenodd"/><path fill="#ffffff" d="m285.73984 244.39897l1.3509521 4.0807495l-3.4611816 2.564911l-3.4901123 -2.4955444l1.3041992 -4.107239z" fill-rule="evenodd"/><path stroke="#9900ff" stroke-width="1.0" stroke-linejoin="round" stroke-linecap="butt" d="m285.73984 244.39897l1.3509521 4.0807495l-3.4611816 2.564911l-3.4901123 -2.4955444l1.3041992 -4.107239z" fill-rule="evenodd"/><path fill="#ffffff" d="m262.88498 290.35208l-0.084991455 -4.2940063l4.0534973 -1.4067688l2.590149 3.4246216l-2.4526672 3.523285z" fill-rule="evenodd"/><path stroke="#9900ff" stroke-width="1.0" stroke-linejoin="round" stroke-linecap="butt" d="m262.88498 290.35208l-0.084991455 -4.2940063l4.0534973 -1.4067688l2.590149 3.4246216l-2.4526672 3.523285z" fill-rule="evenodd"/><path fill="#ffffff" d="m258.64612 257.94003l-0.08496094 -4.294052l4.053467 -1.4067383l2.5901794 3.4246216l-2.4526672 3.5232697z" fill-rule="evenodd"/><path stroke="#9900ff" stroke-width="1.0" stroke-linejoin="round" stroke-linecap="butt" d="m258.64612 257.94003l-0.08496094 -4.294052l4.053467 -1.4067383l2.5901794 3.4246216l-2.4526672 3.5232697z" fill-rule="evenodd"/><path fill="#ffffff" d="m255.92435 241.59882l-0.0849762 -4.294037l4.053482 -1.4067383l2.590149 3.4246216l-2.4526672 3.5232697z" fill-rule="evenodd"/><path stroke="#9900ff" stroke-width="1.0" stroke-linejoin="round" stroke-linecap="butt" d="m255.92435 241.59882l-0.0849762 -4.294037l4.053482 -1.4067383l2.590149 3.4246216l-2.4526672 3.5232697z" fill-rule="evenodd"/><path fill="#ffffff" d="m238.71175 273.98727l-0.0849762 -4.294037l4.053467 -1.4067383l2.5901642 3.4246216l-2.452652 3.5232544z" fill-rule="evenodd"/><path stroke="#9900ff" stroke-width="1.0" stroke-linejoin="round" stroke-linecap="butt" d="m238.71175 273.98727l-0.0849762 -4.294037l4.053467 -1.4067383l2.5901642 3.4246216l-2.452652 3.5232544z" fill-rule="evenodd"/><path fill="#9900ff" d="m229.87927 237.87422l5.275589 -3.8256683l5.2755737 3.8256683l-2.015091 6.1900635l-6.520981 0z" fill-rule="evenodd"/><path stroke="#9900ff" stroke-width="1.0" stroke-linejoin="round" stroke-linecap="butt" d="m229.87927 237.87422l5.275589 -3.8256683l5.2755737 3.8256683l-2.015091 6.1900635l-6.520981 0z" fill-rule="evenodd"/><path fill="#ffffff" d="m280.82846 238.55252l-2.564911 3.4454498l-4.0807495 -1.3667145l0.042877197 -4.2901154l4.107239 -1.284729z" fill-rule="evenodd"/><path stroke="#9900ff" stroke-width="1.0" stroke-linejoin="round" stroke-linecap="butt" d="m280.82846 238.55252l-2.564911 3.4454498l-4.0807495 -1.3667145l0.042877197 -4.2901154l4.107239 -1.284729z" fill-rule="evenodd"/><path fill="#ffffff" d="m314.77213 217.44133l-0.084991455 -4.294037l4.053467 -1.4067383l2.5901794 3.4246216l-2.4526672 3.5232697z" fill-rule="evenodd"/><path stroke="#9900ff" stroke-width="1.0" stroke-linejoin="round" stroke-linecap="butt" d="m314.77213 217.44133l-0.084991455 -4.294037l4.053467 -1.4067383l2.5901794 3.4246216l-2.4526672 3.5232697z" fill-rule="evenodd"/><path fill="#ffffff" d="m320.19467 232.72217l-0.08496094 -4.294037l4.053467 -1.4067383l2.5901794 3.4246216l-2.4526672 3.523285z" fill-rule="evenodd"/><path stroke="#9900ff" stroke-width="1.0" stroke-linejoin="round" stroke-linecap="butt" d="m320.19467 232.72217l-0.08496094 -4.294037l4.053467 -1.4067383l2.5901794 3.4246216l-2.4526672 3.523285z" fill-rule="evenodd"/><path fill="#ffffff" d="m278.12906 268.88754l-0.08496094 -4.294037l4.053467 -1.4067383l2.5901794 3.4246216l-2.4526672 3.5232544z" fill-rule="evenodd"/><path stroke="#9900ff" stroke-width="1.0" stroke-linejoin="round" stroke-linecap="butt" d="m278.12906 268.88754l-0.08496094 -4.294037l4.053467 -1.4067383l2.5901794 3.4246216l-2.4526672 3.5232544z" fill-rule="evenodd"/><path fill="#f1c232" d="m102.72835 210.14961l10.551178 0l0 10.551178l-10.551178 0z" fill-rule="evenodd"/><path stroke="#f1c232" stroke-width="1.0" stroke-linejoin="round" stroke-linecap="butt" d="m102.72835 210.14961l10.551178 0l0 10.551178l-10.551178 0z" fill-rule="evenodd"/><path fill="#ffffff" d="m213.0515 170.2808l4.4409485 -3.5748138l0.5984192 5.6850433z" fill-rule="evenodd"/><path stroke="#cc0000" stroke-width="1.0" stroke-linejoin="round" stroke-linecap="butt" d="m213.0515 170.2808l4.4409485 -3.5748138l0.5984192 5.6850433z" fill-rule="evenodd"/><path fill="#ffffff" d="m176.73785 155.83723l4.4409485 -3.5747986l0.5984192 5.685028z" fill-rule="evenodd"/><path stroke="#cc0000" stroke-width="1.0" stroke-linejoin="round" stroke-linecap="butt" d="m176.73785 155.83723l4.4409485 -3.5747986l0.5984192 5.685028z" fill-rule="evenodd"/><path fill="#ffffff" d="m262.55807 123.99865l4.4409485 -3.5748062l0.5984192 5.6850433z" fill-rule="evenodd"/><path stroke="#cc0000" stroke-width="1.0" stroke-linejoin="round" stroke-linecap="butt" d="m262.55807 123.99865l4.4409485 -3.5748062l0.5984192 5.6850433z" fill-rule="evenodd"/><path fill="#ffffff" d="m269.64468 145.15875l4.4409485 -3.5747986l0.5984192 5.6850433z" fill-rule="evenodd"/><path stroke="#cc0000" stroke-width="1.0" stroke-linejoin="round" stroke-linecap="butt" d="m269.64468 145.15875l4.4409485 -3.5747986l0.5984192 5.6850433z" fill-rule="evenodd"/><path fill="#ffffff" d="m198.63156 176.643l4.440933 -3.5747986l0.59843445 5.6850433z" fill-rule="evenodd"/><path stroke="#cc0000" stroke-width="1.0" stroke-linejoin="round" stroke-linecap="butt" d="m198.63156 176.643l4.440933 -3.5747986l0.59843445 5.6850433z" fill-rule="evenodd"/><path fill="#ffffff" d="m233.76016 139.43303l4.4409485 -3.5747986l0.5984192 5.6850433z" fill-rule="evenodd"/><path stroke="#cc0000" stroke-width="1.0" stroke-linejoin="round" stroke-linecap="butt" d="m233.76016 139.43303l4.4409485 -3.5747986l0.5984192 5.6850433z" fill-rule="evenodd"/><path fill="#ffffff" d="m185.39796 166.97371l4.440933 -3.5747986l0.59843445 5.6850433z" fill-rule="evenodd"/><path stroke="#cc0000" stroke-width="1.0" stroke-linejoin="round" stroke-linecap="butt" d="m185.39796 166.97371l4.440933 -3.5747986l0.59843445 5.6850433z" fill-rule="evenodd"/><path fill="#ffffff" d="m180.21948 172.95665l4.4409485 -3.5747986l0.5984192 5.6850433z" fill-rule="evenodd"/><path stroke="#cc0000" stroke-width="1.0" stroke-linejoin="round" stroke-linecap="butt" d="m180.21948 172.95665l4.4409485 -3.5747986l0.5984192 5.6850433z" fill-rule="evenodd"/><path fill="#000000" fill-opacity="0.0" d="m187.36482 189.04724l157.88979 -46.015747" fill-rule="evenodd"/><path stroke="#000000" stroke-width="1.0" stroke-linejoin="round" stroke-linecap="butt" d="m187.36482 189.04724l157.88979 -46.015747" fill-rule="evenodd"/><path fill="#ffffff" d="m274.64612 273.94003l-0.08496094 -4.294037l4.053467 -1.4067383l2.5901794 3.4246216l-2.4526672 3.5232544z" fill-rule="evenodd"/><path stroke="#9900ff" stroke-width="1.0" stroke-linejoin="round" stroke-linecap="butt" d="m274.64612 273.94003l-0.08496094 -4.294037l4.053467 -1.4067383l2.5901794 3.4246216l-2.4526672 3.5232544z" fill-rule="evenodd"/><path fill="#ffffff" d="m290.64612 289.94003l-0.08496094 -4.294037l4.053467 -1.4067383l2.5901794 3.4246216l-2.4526672 3.5232544z" fill-rule="evenodd"/><path stroke="#9900ff" stroke-width="1.0" stroke-linejoin="round" stroke-linecap="butt" d="m290.64612 289.94003l-0.08496094 -4.294037l4.053467 -1.4067383l2.5901794 3.4246216l-2.4526672 3.5232544z" fill-rule="evenodd"/><path fill="#ffffff" d="m315.14218 177.82716l-0.08496094 -4.294037l4.053467 -1.4067383l2.5901794 3.4246216l-2.4526672 3.5232697z" fill-rule="evenodd"/><path stroke="#9900ff" stroke-width="1.0" stroke-linejoin="round" stroke-linecap="butt" d="m315.14218 177.82716l-0.08496094 -4.294037l4.053467 -1.4067383l2.5901794 3.4246216l-2.4526672 3.5232697z" fill-rule="evenodd"/><path fill="#ffffff" d="m262.88498 187.39409l-0.084991455 -4.294037l4.0534973 -1.4067383l2.590149 3.4246216l-2.4526672 3.5232697z" fill-rule="evenodd"/><path stroke="#9900ff" stroke-width="1.0" stroke-linejoin="round" stroke-linecap="butt" d="m262.88498 187.39409l-0.084991455 -4.294037l4.0534973 -1.4067383l2.590149 3.4246216l-2.4526672 3.5232697z" fill-rule="evenodd"/><path fill="#ffffff" d="m279.738 176.81142l-0.084991455 -4.294037l4.053467 -1.4067383l2.5901794 3.4246216l-2.4526672 3.5232697z" fill-rule="evenodd"/><path stroke="#9900ff" stroke-width="1.0" stroke-linejoin="round" stroke-linecap="butt" d="m279.738 176.81142l-0.084991455 -4.294037l4.053467 -1.4067383l2.5901794 3.4246216l-2.4526672 3.5232697z" fill-rule="evenodd"/><path fill="#ffffff" d="m254.71175 274.14606l-0.0849762 -4.294037l4.053467 -1.4067383l2.5901794 3.4246216l-2.4526672 3.523285z" fill-rule="evenodd"/><path stroke="#9900ff" stroke-width="1.0" stroke-linejoin="round" stroke-linecap="butt" d="m254.71175 274.14606l-0.0849762 -4.294037l4.053467 -1.4067383l2.5901794 3.4246216l-2.4526672 3.523285z" fill-rule="evenodd"/><path fill="#ffffff" d="m309.9952 208.05026l-0.084991455 -4.294037l4.0534973 -1.4067383l2.590149 3.4246216l-2.4526672 3.5232697z" fill-rule="evenodd"/><path stroke="#9900ff" stroke-width="1.0" stroke-linejoin="round" stroke-linecap="butt" d="m309.9952 208.05026l-0.084991455 -4.294037l4.0534973 -1.4067383l2.590149 3.4246216l-2.4526672 3.5232697z" fill-rule="evenodd"/><path fill="#ffffff" d="m236.39633 92.14173l2.7243958 -5.0078735l2.724411 5.0078735z" fill-rule="evenodd"/><path stroke="#cc0000" stroke-width="1.0" stroke-linejoin="round" stroke-linecap="butt" d="m236.39633 92.14173l2.7243958 -5.0078735l2.724411 5.0078735z" fill-rule="evenodd"/><path fill="#ffffff" d="m199.38846 54.307087l2.7243958 -5.0078735l2.724411 5.0078735z" fill-rule="evenodd"/><path stroke="#cc0000" stroke-width="1.0" stroke-linejoin="round" stroke-linecap="butt" d="m199.38846 54.307087l2.7243958 -5.0078735l2.724411 5.0078735z" fill-rule="evenodd"/><path fill="#ffffff" d="m271.30185 28.624672l2.7243958 -5.0078735l2.7244263 5.0078735z" fill-rule="evenodd"/><path stroke="#cc0000" stroke-width="1.0" stroke-linejoin="round" stroke-linecap="butt" d="m271.30185 28.624672l2.7243958 -5.0078735l2.7244263 5.0078735z" fill-rule="evenodd"/><path fill="#ffffff" d="m284.39633 140.14174l2.7243958 -5.0078735l2.7244263 5.0078735z" fill-rule="evenodd"/><path stroke="#cc0000" stroke-width="1.0" stroke-linejoin="round" stroke-linecap="butt" d="m284.39633 140.14174l2.7243958 -5.0078735l2.7244263 5.0078735z" fill-rule="evenodd"/><path fill="#ffffff" d="m248.04724 13.488189l2.724411 -5.0078735l2.724411 5.0078735z" fill-rule="evenodd"/><path stroke="#cc0000" stroke-width="1.0" stroke-linejoin="round" stroke-linecap="butt" d="m248.04724 13.488189l2.724411 -5.0078735l2.724411 5.0078735z" fill-rule="evenodd"/><path fill="#ffffff" d="m203.90552 17.771654l2.724411 -5.0078745l2.7243958 5.0078745z" fill-rule="evenodd"/><path stroke="#cc0000" stroke-width="1.0" stroke-linejoin="round" stroke-linecap="butt" d="m203.90552 17.771654l2.724411 -5.0078745l2.7243958 5.0078745z" fill-rule="evenodd"/><path fill="#ffffff" d="m52.14698 43.27034l0 0c0 -1.382885 1.2197609 -2.5039368 2.724411 -2.5039368l0 0c1.5046501 0 2.724411 1.1210518 2.724411 2.5039368l0 0c0 1.3828888 -1.2197609 2.5039368 -2.724411 2.5039368l0 0c-1.5046501 0 -2.724411 -1.121048 -2.724411 -2.5039368z" fill-rule="evenodd"/><path stroke="#0000ff" stroke-width="1.0" stroke-linejoin="round" stroke-linecap="butt" d="m52.14698 43.27034l0 0c0 -1.382885 1.2197609 -2.5039368 2.724411 -2.5039368l0 0c1.5046501 0 2.724411 1.1210518 2.724411 2.5039368l0 0c0 1.3828888 -1.2197609 2.5039368 -2.724411 2.5039368l0 0c-1.5046501 0 -2.724411 -1.121048 -2.724411 -2.5039368z" fill-rule="evenodd"/><path fill="#ffffff" d="m41.669292 65.34908l0 0c0 -1.3828888 1.2197571 -2.5039368 2.7244072 -2.5039368l0 0c1.5046501 0 2.724411 1.121048 2.724411 2.5039368l0 0c0 1.3828812 -1.2197609 2.5039368 -2.724411 2.5039368l0 0c-1.5046501 0 -2.7244072 -1.1210556 -2.7244072 -2.5039368z" fill-rule="evenodd"/><path stroke="#0000ff" stroke-width="1.0" stroke-linejoin="round" stroke-linecap="butt" d="m41.669292 65.34908l0 0c0 -1.3828888 1.2197571 -2.5039368 2.7244072 -2.5039368l0 0c1.5046501 0 2.724411 1.121048 2.724411 2.5039368l0 0c0 1.3828812 -1.2197609 2.5039368 -2.724411 2.5039368l0 0c-1.5046501 0 -2.7244072 -1.1210556 -2.7244072 -2.5039368z" fill-rule="evenodd"/><path fill="#ffffff" d="m68.220474 82.66929l0 0c0 -1.3828812 1.2197571 -2.5039368 2.724411 -2.5039368l0 0c1.5046463 0 2.7244034 1.1210556 2.7244034 2.5039368l0 0c0 1.3828888 -1.2197571 2.5039368 -2.7244034 2.5039368l0 0c-1.5046539 0 -2.724411 -1.121048 -2.724411 -2.5039368z" fill-rule="evenodd"/><path stroke="#0000ff" stroke-width="1.0" stroke-linejoin="round" stroke-linecap="butt" d="m68.220474 82.66929l0 0c0 -1.3828812 1.2197571 -2.5039368 2.724411 -2.5039368l0 0c1.5046463 0 2.7244034 1.1210556 2.7244034 2.5039368l0 0c0 1.3828888 -1.2197571 2.5039368 -2.7244034 2.5039368l0 0c-1.5046539 0 -2.724411 -1.121048 -2.724411 -2.5039368z" fill-rule="evenodd"/><path fill="#ffffff" d="m84.56693 97.35171l0 0c0 -1.3828888 1.2197571 -2.5039368 2.7244034 -2.5039368l0 0c1.5046539 0 2.724411 1.121048 2.724411 2.5039368l0 0c0 1.3828812 -1.2197571 2.5039368 -2.724411 2.5039368l0 0c-1.5046463 0 -2.7244034 -1.1210556 -2.7244034 -2.5039368z" fill-rule="evenodd"/><path stroke="#0000ff" stroke-width="1.0" stroke-linejoin="round" stroke-linecap="butt" d="m84.56693 97.35171l0 0c0 -1.3828888 1.2197571 -2.5039368 2.7244034 -2.5039368l0 0c1.5046539 0 2.724411 1.121048 2.724411 2.5039368l0 0c0 1.3828812 -1.2197571 2.5039368 -2.724411 2.5039368l0 0c-1.5046463 0 -2.7244034 -1.1210556 -2.7244034 -2.5039368z" fill-rule="evenodd"/><path fill="#ffffff" d="m68.220474 22.95013l0 0c0 -1.382885 1.2197571 -2.5039368 2.724411 -2.5039368l0 0c1.5046463 0 2.7244034 1.1210518 2.7244034 2.5039368l0 0c0 1.3828869 -1.2197571 2.5039387 -2.7244034 2.5039387l0 0c-1.5046539 0 -2.724411 -1.1210518 -2.724411 -2.5039387z" fill-rule="evenodd"/><path stroke="#0000ff" stroke-width="1.0" stroke-linejoin="round" stroke-linecap="butt" d="m68.220474 22.95013l0 0c0 -1.382885 1.2197571 -2.5039368 2.724411 -2.5039368l0 0c1.5046463 0 2.7244034 1.1210518 2.7244034 2.5039368l0 0c0 1.3828869 -1.2197571 2.5039387 -2.7244034 2.5039387l0 0c-1.5046539 0 -2.724411 -1.1210518 -2.724411 -2.5039387z" fill-rule="evenodd"/><path fill="#ffffff" d="m80.53018 37.97638l0 0c0 -1.3828888 1.2197647 -2.5039368 2.724411 -2.5039368l0 0c1.5046463 0 2.724411 1.121048 2.724411 2.5039368l0 0c0 1.382885 -1.2197647 2.5039368 -2.724411 2.5039368l0 0c-1.5046463 0 -2.724411 -1.1210518 -2.724411 -2.5039368z" fill-rule="evenodd"/><path stroke="#0000ff" stroke-width="1.0" stroke-linejoin="round" stroke-linecap="butt" d="m80.53018 37.97638l0 0c0 -1.3828888 1.2197647 -2.5039368 2.724411 -2.5039368l0 0c1.5046463 0 2.724411 1.121048 2.724411 2.5039368l0 0c0 1.382885 -1.2197647 2.5039368 -2.724411 2.5039368l0 0c-1.5046463 0 -2.724411 -1.1210518 -2.724411 -2.5039368z" fill-rule="evenodd"/><path fill="#ffffff" d="m96.79002 37.88714l0 0c0 -1.382885 1.2197647 -2.5039368 2.724411 -2.5039368l0 0c1.5046539 0 2.724411 1.1210518 2.724411 2.5039368l0 0c0 1.3828888 -1.2197571 2.5039368 -2.724411 2.5039368l0 0c-1.5046463 0 -2.724411 -1.121048 -2.724411 -2.5039368z" fill-rule="evenodd"/><path stroke="#0000ff" stroke-width="1.0" stroke-linejoin="round" stroke-linecap="butt" d="m96.79002 37.88714l0 0c0 -1.382885 1.2197647 -2.5039368 2.724411 -2.5039368l0 0c1.5046539 0 2.724411 1.1210518 2.724411 2.5039368l0 0c0 1.3828888 -1.2197571 2.5039368 -2.724411 2.5039368l0 0c-1.5046463 0 -2.724411 -1.121048 -2.724411 -2.5039368z" fill-rule="evenodd"/><path fill="#ffffff" d="m112.53018 69.97638l0 0c0 -1.3828888 1.2197647 -2.5039368 2.724411 -2.5039368l0 0c1.5046463 0 2.724411 1.121048 2.724411 2.5039368l0 0c0 1.3828812 -1.2197647 2.5039368 -2.724411 2.5039368l0 0c-1.5046463 0 -2.724411 -1.1210556 -2.724411 -2.5039368z" fill-rule="evenodd"/><path stroke="#0000ff" stroke-width="1.0" stroke-linejoin="round" stroke-linecap="butt" d="m112.53018 69.97638l0 0c0 -1.3828888 1.2197647 -2.5039368 2.724411 -2.5039368l0 0c1.5046463 0 2.724411 1.121048 2.724411 2.5039368l0 0c0 1.3828812 -1.2197647 2.5039368 -2.724411 2.5039368l0 0c-1.5046463 0 -2.724411 -1.1210556 -2.724411 -2.5039368z" fill-rule="evenodd"/><path fill="#ffffff" d="m96.79002 15.267716l0 0c0 -1.3828859 1.2197647 -2.5039368 2.724411 -2.5039368l0 0c1.5046539 0 2.724411 1.1210508 2.724411 2.5039368l0 0c0 1.3828859 -1.2197571 2.5039377 -2.724411 2.5039377l0 0c-1.5046463 0 -2.724411 -1.1210518 -2.724411 -2.5039377z" fill-rule="evenodd"/><path stroke="#0000ff" stroke-width="1.0" stroke-linejoin="round" stroke-linecap="butt" d="m96.79002 15.267716l0 0c0 -1.3828859 1.2197647 -2.5039368 2.724411 -2.5039368l0 0c1.5046539 0 2.724411 1.1210508 2.724411 2.5039368l0 0c0 1.3828859 -1.2197571 2.5039377 -2.724411 2.5039377l0 0c-1.5046463 0 -2.724411 -1.1210518 -2.724411 -2.5039377z" fill-rule="evenodd"/><path fill="#ffffff" d="m136.83333 86.708664l0 0c0 -1.3828888 1.2197723 -2.5039368 2.724411 -2.5039368l0 0c1.5046539 0 2.724411 1.121048 2.724411 2.5039368l0 0c0 1.3828812 -1.2197571 2.5039368 -2.724411 2.5039368l0 0c-1.5046387 0 -2.724411 -1.1210556 -2.724411 -2.5039368z" fill-rule="evenodd"/><path stroke="#0000ff" stroke-width="1.0" stroke-linejoin="round" stroke-linecap="butt" d="m136.83333 86.708664l0 0c0 -1.3828888 1.2197723 -2.5039368 2.724411 -2.5039368l0 0c1.5046539 0 2.724411 1.121048 2.724411 2.5039368l0 0c0 1.3828812 -1.2197571 2.5039368 -2.724411 2.5039368l0 0c-1.5046387 0 -2.724411 -1.1210556 -2.724411 -2.5039368z" fill-rule="evenodd"/><path fill="#ffffff" d="m135.82414 99.073494l0 0c0 -1.3828888 1.2197571 -2.5039368 2.724411 -2.5039368l0 0c1.5046539 0 2.724411 1.121048 2.724411 2.5039368l0 0c0 1.3828812 -1.2197571 2.5039368 -2.724411 2.5039368l0 0c-1.5046539 0 -2.724411 -1.1210556 -2.724411 -2.5039368z" fill-rule="evenodd"/><path stroke="#0000ff" stroke-width="1.0" stroke-linejoin="round" stroke-linecap="butt" d="m135.82414 99.073494l0 0c0 -1.3828888 1.2197571 -2.5039368 2.724411 -2.5039368l0 0c1.5046539 0 2.724411 1.121048 2.724411 2.5039368l0 0c0 1.3828812 -1.2197571 2.5039368 -2.724411 2.5039368l0 0c-1.5046539 0 -2.724411 -1.1210556 -2.724411 -2.5039368z" fill-rule="evenodd"/><path fill="#ffffff" d="m69.402885 117.08924l0 0c0 -1.3828888 1.2197647 -2.5039368 2.724411 -2.5039368l0 0c1.5046463 0 2.724411 1.121048 2.724411 2.5039368l0 0c0 1.3828812 -1.2197647 2.5039368 -2.724411 2.5039368l0 0c-1.5046463 0 -2.724411 -1.1210556 -2.724411 -2.5039368z" fill-rule="evenodd"/><path stroke="#0000ff" stroke-width="1.0" stroke-linejoin="round" stroke-linecap="butt" d="m69.402885 117.08924l0 0c0 -1.3828888 1.2197647 -2.5039368 2.724411 -2.5039368l0 0c1.5046463 0 2.724411 1.121048 2.724411 2.5039368l0 0c0 1.3828812 -1.2197647 2.5039368 -2.724411 2.5039368l0 0c-1.5046463 0 -2.724411 -1.1210556 -2.724411 -2.5039368z" fill-rule="evenodd"/></g></svg>