<svg version="1.1" viewBox="0.0 0.0 481.51706036745406 318.26509186351706" fill="none" stroke="none" stroke-linecap="square" stroke-miterlimit="10" xmlns:xlink="http://www.w3.org/1999/xlink" xmlns="http://www.w3.org/2000/svg"><clipPath id="p.0"><path d="m0 0l481.51706 0l0 318.2651l-481.51706 0l0 -318.2651z" clip-rule="nonzero"/></clipPath><g clip-path="url(#p.0)"><path fill="#000000" fill-opacity="0.0" d="m0 0l481.51706 0l0 318.2651l-481.51706 0z" fill-rule="evenodd"/><path fill="#434343" d="m199.77148 17.993677l0 0c0 -6.41868 5.203369 -11.622047 11.62204 -11.622047l57.543304 0c3.082367 0 6.0384827 1.2244625 8.218048 3.4040189c2.179535 2.1795568 3.4039917 5.1356697 3.4039917 8.218029l0 0l0 0c0 6.4186783 -5.203369 11.622047 -11.62204 11.622047l-57.543304 0c-6.4186707 0 -11.62204 -5.203369 -11.62204 -11.622047z" fill-rule="evenodd"/><path fill="#ffffff" d="m232.80093 20.393675q-0.046875 -0.109375 -0.078125 -0.375q-0.421875 0.4375 -1.0 0.4375q-0.53125 0 -0.859375 -0.28125q-0.328125 -0.296875 -0.328125 -0.75q0 -0.5625 0.40625 -0.859375q0.421875 -0.296875 1.1875 -0.296875l0.578125 0l0 -0.28125q0 -0.3125 -0.1875 -0.5q-0.1875 -0.1875 -0.5625 -0.1875q-0.3125 0 -0.53125 0.171875q-0.21875 0.15625 -0.21875 0.375l-0.609375 0q0 -0.265625 0.1875 -0.5q0.1875 -0.25 0.5 -0.390625q0.328125 -0.140625 0.71875 -0.140625q0.609375 0 0.953125 0.3125q0.34375 0.296875 0.359375 0.828125l0 1.609375q0 0.484375 0.109375 0.78125l0 0.046875l-0.625 0zm-1.0 -0.453125q0.28125 0 0.53125 -0.140625q0.265625 -0.15625 0.375 -0.390625l0 -0.71875l-0.46875 0q-1.109375 0 -1.109375 0.640625q0 0.28125 0.1875 0.453125q0.1875 0.15625 0.484375 0.15625zm3.026886 -3.0625l0.015625 0.4375q0.40625 -0.5 1.046875 -0.5q1.125 0 1.125 1.25l0 2.328125l-0.59375 0l0 -2.328125q-0.015625 -0.375 -0.1875 -0.5625q-0.15625 -0.1875 -0.515625 -0.1875q-0.296875 0 -0.515625 0.15625q-0.21875 0.15625 -0.34375 0.421875l0 2.5l-0.609375 0l0 -3.515625l0.578125 0zm3.750763 3.515625l-0.609375 0l0 -3.515625l0.609375 0l0 3.515625zm-0.65625 -4.453124q0 -0.140625 0.09375 -0.234375q0.09375 -0.109375 0.265625 -0.109375q0.171875 0 0.265625 0.109375q0.09375 0.09375 0.09375 0.25q0 0.14062405 -0.09375 0.23437405q-0.09375 0.09375 -0.265625 0.09375q-0.171875 0 -0.265625 -0.09375q-0.09375 -0.09375 -0.09375 -0.24999905zm2.1778107 0.93749905l0.015625 0.390625q0.390625 -0.453125 1.046875 -0.453125q0.734375 0 1.0 0.5625q0.1875 -0.25 0.46875 -0.40625q0.28125 -0.15625 0.65625 -0.15625q1.15625 0 1.171875 1.21875l0 2.359375l-0.59375 0l0 -2.328125q0 -0.375 -0.171875 -0.5625q-0.171875 -0.1875 -0.578125 -0.1875q-0.328125 0 -0.5625 0.203125q-0.21875 0.203125 -0.25 0.546875l0 2.328125l-0.609375 0l0 -2.296875q0 -0.78125 -0.75 -0.78125q-0.59375 0 -0.8125 0.515625l0 2.5625l-0.59375 0l0 -3.515625l0.5625 0zm7.443344 3.515625q-0.046875 -0.109375 -0.078125 -0.375q-0.421875 0.4375 -1.0 0.4375q-0.53125 0 -0.859375 -0.28125q-0.328125 -0.296875 -0.328125 -0.75q0 -0.5625 0.40625 -0.859375q0.421875 -0.296875 1.1875 -0.296875l0.578125 0l0 -0.28125q0 -0.3125 -0.1875 -0.5q-0.1875 -0.1875 -0.5625 -0.1875q-0.3125 0 -0.53125 0.171875q-0.21875 0.15625 -0.21875 0.375l-0.609375 0q0 -0.265625 0.1875 -0.5q0.1875 -0.25 0.5 -0.390625q0.328125 -0.140625 0.71875 -0.140625q0.609375 0 0.953125 0.3125q0.34375 0.296875 0.359375 0.828125l0 1.609375q0 0.484375 0.109375 0.78125l0 0.046875l-0.625 0zm-1.0 -0.453125q0.28125 0 0.53125 -0.140625q0.265625 -0.15625 0.375 -0.390625l0 -0.71875l-0.46875 0q-1.109375 0 -1.109375 0.640625q0 0.28125 0.1875 0.453125q0.1875 0.15625 0.484375 0.15625zm3.105011 0.453125l-0.609375 0l0 -4.999999l0.609375 0l0 4.999999z" fill-rule="nonzero"/><path fill="#0d5ddf" d="m318.64575 65.25567l0 0c0 -6.418682 5.203369 -11.622047 11.62207 -11.622047l57.543304 0c3.0823364 0 6.038452 1.2244606 8.218018 3.4040184c2.1795654 2.179554 3.4040222 5.1356697 3.4040222 8.218029l0 0l0 0c0 6.4186783 -5.203369 11.622047 -11.62204 11.622047l-57.543304 0c-6.418701 0 -11.62207 -5.203369 -11.62207 -11.622047z" fill-rule="evenodd"/><path fill="#ffffff" d="m342.49905 67.65566l-0.609375 0l0 -3.515625l0.609375 0l0 3.515625zm-0.65625 -4.453121q0 -0.140625 0.09375 -0.234375q0.09375 -0.109375 0.265625 -0.109375q0.171875 0 0.265625 0.109375q0.09375 0.09375 0.09375 0.25q0 0.140625 -0.09375 0.234375q-0.09375 0.09375 -0.265625 0.09375q-0.171875 0 -0.265625 -0.09375q-0.09375 -0.09375 -0.09375 -0.25zm2.1934204 0.9374962l0.015625 0.4375q0.40625 -0.5 1.046875 -0.5q1.125 0 1.125 1.25l0 2.328125l-0.59375 0l0 -2.328125q-0.015625 -0.375 -0.1875 -0.5625q-0.15625 -0.1875 -0.515625 -0.1875q-0.296875 0 -0.515625 0.15625q-0.21875 0.15625 -0.34375 0.421875l0 2.5l-0.609375 0l0 -3.515625l0.578125 0zm4.250763 2.703125l0.875 -2.703125l0.609375 0l-1.25 3.515625l-0.46875 0l-1.265625 -3.515625l0.609375 0l0.890625 2.703125zm3.536621 0.875q-0.71875 0 -1.171875 -0.46875q-0.453125 -0.46875 -0.453125 -1.25l0 -0.109375q0 -0.53125 0.203125 -0.9375q0.203125 -0.40625 0.5625 -0.640625q0.359375 -0.234375 0.78125 -0.234375q0.6875 0 1.0625 0.453125q0.375 0.453125 0.375 1.28125l0 0.25l-2.375 0q0.015625 0.53125 0.296875 0.859375q0.296875 0.3125 0.75 0.3125q0.3125 0 0.53125 -0.125q0.21875 -0.140625 0.390625 -0.359375l0.359375 0.296875q-0.4375 0.671875 -1.3125 0.671875zm-0.078125 -3.15625q-0.375 0 -0.625 0.265625q-0.234375 0.265625 -0.296875 0.75l1.765625 0l0 -0.046875q-0.03125 -0.453125 -0.25 -0.703125q-0.21875 -0.265625 -0.59375 -0.265625zm3.8388977 0.109375q-0.140625 -0.015625 -0.296875 -0.015625q-0.59375 0 -0.796875 0.5l0 2.5l-0.609375 0l0 -3.515625l0.59375 0l0 0.40625q0.296875 -0.46875 0.84375 -0.46875q0.171875 0 0.265625 0.046875l0 0.546875zm1.3616943 -1.3906212l0 0.8593712l0.65625 0l0 0.46875l-0.65625 0l0 2.171875q0 0.21875 0.09375 0.328125q0.09375 0.09375 0.296875 0.09375q0.109375 0 0.28125 -0.03125l0 0.484375q-0.234375 0.0625 -0.453125 0.0625q-0.40625 0 -0.609375 -0.234375q-0.203125 -0.25 -0.203125 -0.703125l0 -2.171875l-0.640625 0l0 -0.46875l0.640625 0l0 -0.8593712l0.59375 0zm2.830597 4.437496q-0.71875 0 -1.171875 -0.46875q-0.453125 -0.46875 -0.453125 -1.25l0 -0.109375q0 -0.53125 0.203125 -0.9375q0.203125 -0.40625 0.5625 -0.640625q0.359375 -0.234375 0.78125 -0.234375q0.6875 0 1.0625 0.453125q0.375 0.453125 0.375 1.28125l0 0.25l-2.375 0q0.015625 0.53125 0.296875 0.859375q0.296875 0.3125 0.75 0.3125q0.3125 0 0.53125 -0.125q0.21875 -0.140625 0.390625 -0.359375l0.359375 0.296875q-0.4375 0.671875 -1.3125 0.671875zm-0.078125 -3.15625q-0.375 0 -0.625 0.265625q-0.234375 0.265625 -0.296875 0.75l1.765625 0l0 -0.046875q-0.03125 -0.453125 -0.25 -0.703125q-0.21875 -0.265625 -0.59375 -0.265625zm5.120117 1.375q0 0.8125 -0.375 1.296875q-0.375 0.484375 -1.0 0.484375q-0.65625 0 -1.03125 -0.46875l-0.03125 0.40625l-0.546875 0l0 -4.999996l0.609375 0l0 1.8749962q0.359375 -0.453125 1.0 -0.453125q0.640625 0 1.0 0.484375q0.375 0.484375 0.375 1.328125l0 0.046875zm-0.609375 -0.0625q0 -0.625 -0.234375 -0.953125q-0.234375 -0.34375 -0.6875 -0.34375q-0.59375 0 -0.84375 0.5625l0 1.515625q0.265625 0.5625 0.859375 0.5625q0.421875 0 0.65625 -0.328125q0.25 -0.34375 0.25 -1.015625zm3.0625305 -1.203125q-0.140625 -0.015625 -0.296875 -0.015625q-0.59375 0 -0.796875 0.5l0 2.5l-0.609375 0l0 -3.515625l0.59375 0l0 0.40625q0.296875 -0.46875 0.84375 -0.46875q0.171875 0 0.265625 0.046875l0 0.546875zm2.7210693 2.984375q-0.046875 -0.109375 -0.078125 -0.375q-0.421875 0.4375 -1.0 0.4375q-0.53125 0 -0.859375 -0.28125q-0.328125 -0.296875 -0.328125 -0.75q0 -0.5625 0.40625 -0.859375q0.421875 -0.296875 1.1875 -0.296875l0.578125 0l0 -0.28125q0 -0.3125 -0.1875 -0.5q-0.1875 -0.1875 -0.5625 -0.1875q-0.3125 0 -0.53125 0.171875q-0.21875 0.15625 -0.21875 0.375l-0.609375 0q0 -0.265625 0.1875 -0.5q0.1875 -0.25 0.5 -0.390625q0.328125 -0.140625 0.71875 -0.140625q0.609375 0 0.953125 0.3125q0.34375 0.296875 0.359375 0.828125l0 1.609375q0 0.484375 0.109375 0.78125l0 0.046875l-0.625 0zm-1.0 -0.453125q0.28125 0 0.53125 -0.140625q0.265625 -0.15625 0.375 -0.390625l0 -0.71875l-0.46875 0q-1.109375 0 -1.109375 0.640625q0 0.28125 0.1875 0.453125q0.1875 0.15625 0.484375 0.15625zm3.261261 -3.9218712l0 0.8593712l0.65625 0l0 0.46875l-0.65625 0l0 2.171875q0 0.21875 0.09375 0.328125q0.09375 0.09375 0.296875 0.09375q0.109375 0 0.28125 -0.03125l0 0.484375q-0.234375 0.0625 -0.453125 0.0625q-0.40625 0 -0.609375 -0.234375q-0.203125 -0.25 -0.203125 -0.703125l0 -2.171875l-0.640625 0l0 -0.46875l0.640625 0l0 -0.8593712l0.59375 0zm2.830597 4.437496q-0.71875 0 -1.171875 -0.46875q-0.453125 -0.46875 -0.453125 -1.25l0 -0.109375q0 -0.53125 0.203125 -0.9375q0.203125 -0.40625 0.5625 -0.640625q0.359375 -0.234375 0.78125 -0.234375q0.6875 0 1.0625 0.453125q0.375 0.453125 0.375 1.28125l0 0.25l-2.375 0q0.015625 0.53125 0.296875 0.859375q0.296875 0.3125 0.75 0.3125q0.3125 0 0.53125 -0.125q0.21875 -0.140625 0.390625 -0.359375l0.359375 0.296875q-0.4375 0.671875 -1.3125 0.671875zm-0.078125 -3.15625q-0.375 0 -0.625 0.265625q-0.234375 0.265625 -0.296875 0.75l1.765625 0l0 -0.046875q-0.03125 -0.453125 -0.25 -0.703125q-0.21875 -0.265625 -0.59375 -0.265625z" fill-rule="nonzero"/><path fill="#cc0000" d="m89.83683 65.25567l0 0c0 -6.418682 5.203369 -11.622047 11.622047 -11.622047l57.543304 0c3.0823517 0 6.0384674 1.2244606 8.218033 3.4040184c2.1795502 2.179554 3.4040222 5.1356697 3.4040222 8.218029l0 0l0 0c0 6.4186783 -5.203369 11.622047 -11.622055 11.622047l-57.543304 0c-6.4186783 0 -11.622047 -5.203369 -11.622047 -11.622047z" fill-rule="evenodd"/><path fill="#ffffff" d="m116.83409 66.84316l0.875 -2.703125l0.609375 0l-1.25 3.515625l-0.46875 0l-1.265625 -3.515625l0.609375 0l0.890625 2.703125zm3.536621 0.875q-0.71875 0 -1.171875 -0.46875q-0.453125 -0.46875 -0.453125 -1.25l0 -0.109375q0 -0.53125 0.203125 -0.9375q0.203125 -0.40625 0.5625 -0.640625q0.359375 -0.234375 0.78125 -0.234375q0.6875 0 1.0625 0.453125q0.375 0.453125 0.375 1.28125l0 0.25l-2.375 0q0.015625 0.53125 0.296875 0.859375q0.296875 0.3125 0.75 0.3125q0.3125 0 0.53125 -0.125q0.21875 -0.140625 0.390625 -0.359375l0.359375 0.296875q-0.4375 0.671875 -1.3125 0.671875zm-0.078125 -3.15625q-0.375 0 -0.625 0.265625q-0.234375 0.265625 -0.296875 0.75l1.765625 0l0 -0.046875q-0.03125 -0.453125 -0.25 -0.703125q-0.21875 -0.265625 -0.59375 -0.265625zm3.8388824 0.109375q-0.140625 -0.015625 -0.296875 -0.015625q-0.59375 0 -0.796875 0.5l0 2.5l-0.609375 0l0 -3.515625l0.59375 0l0 0.40625q0.296875 -0.46875 0.84375 -0.46875q0.171875 0 0.265625 0.046875l0 0.546875zm1.3617096 -1.3906212l0 0.8593712l0.65625 0l0 0.46875l-0.65625 0l0 2.171875q0 0.21875 0.09375 0.328125q0.09375 0.09375 0.296875 0.09375q0.109375 0 0.28125 -0.03125l0 0.484375q-0.234375 0.0625 -0.453125 0.0625q-0.40625 0 -0.609375 -0.234375q-0.203125 -0.25 -0.203125 -0.703125l0 -2.171875l-0.640625 0l0 -0.46875l0.640625 0l0 -0.8593712l0.59375 0zm2.8305817 4.437496q-0.71875 0 -1.171875 -0.46875q-0.453125 -0.46875 -0.453125 -1.25l0 -0.109375q0 -0.53125 0.203125 -0.9375q0.203125 -0.40625 0.5625 -0.640625q0.359375 -0.234375 0.78125 -0.234375q0.6875 0 1.0625 0.453125q0.375 0.453125 0.375 1.28125l0 0.25l-2.375 0q0.015625 0.53125 0.296875 0.859375q0.296875 0.3125 0.75 0.3125q0.3125 0 0.53125 -0.125q0.21875 -0.140625 0.390625 -0.359375l0.359375 0.296875q-0.4375 0.671875 -1.3125 0.671875zm-0.078125 -3.15625q-0.375 0 -0.625 0.265625q-0.234375 0.265625 -0.296875 0.75l1.765625 0l0 -0.046875q-0.03125 -0.453125 -0.25 -0.703125q-0.21875 -0.265625 -0.59375 -0.265625zm5.1201324 1.375q0 0.8125 -0.375 1.296875q-0.375 0.484375 -1.0 0.484375q-0.65625 0 -1.03125 -0.46875l-0.03125 0.40625l-0.546875 0l0 -4.999996l0.609375 0l0 1.8749962q0.359375 -0.453125 1.0 -0.453125q0.640625 0 1.0 0.484375q0.375 0.484375 0.375 1.328125l0 0.046875zm-0.609375 -0.0625q0 -0.625 -0.234375 -0.953125q-0.234375 -0.34375 -0.6875 -0.34375q-0.59375 0 -0.84375 0.5625l0 1.515625q0.265625 0.5625 0.859375 0.5625q0.421875 0 0.65625 -0.328125q0.25 -0.34375 0.25 -1.015625zm3.0625153 -1.203125q-0.140625 -0.015625 -0.296875 -0.015625q-0.59375 0 -0.796875 0.5l0 2.5l-0.609375 0l0 -3.515625l0.59375 0l0 0.40625q0.296875 -0.46875 0.84375 -0.46875q0.171875 0 0.265625 0.046875l0 0.546875zm2.7210846 2.984375q-0.046875 -0.109375 -0.078125 -0.375q-0.421875 0.4375 -1.0 0.4375q-0.53125 0 -0.859375 -0.28125q-0.328125 -0.296875 -0.328125 -0.75q0 -0.5625 0.40625 -0.859375q0.421875 -0.296875 1.1875 -0.296875l0.578125 0l0 -0.28125q0 -0.3125 -0.1875 -0.5q-0.1875 -0.1875 -0.5625 -0.1875q-0.3125 0 -0.53125 0.171875q-0.21875 0.15625 -0.21875 0.375l-0.609375 0q0 -0.265625 0.1875 -0.5q0.1875 -0.25 0.5 -0.390625q0.328125 -0.140625 0.71875 -0.140625q0.609375 0 0.953125 0.3125q0.34375 0.296875 0.359375 0.828125l0 1.609375q0 0.484375 0.109375 0.78125l0 0.046875l-0.625 0zm-1.0 -0.453125q0.28125 0 0.53125 -0.140625q0.265625 -0.15625 0.375 -0.390625l0 -0.71875l-0.46875 0q-1.109375 0 -1.109375 0.640625q0 0.28125 0.1875 0.453125q0.1875 0.15625 0.484375 0.15625zm3.261261 -3.9218712l0 0.8593712l0.65625 0l0 0.46875l-0.65625 0l0 2.171875q0 0.21875 0.09375 0.328125q0.09375 0.09375 0.296875 0.09375q0.109375 0 0.28125 -0.03125l0 0.484375q-0.234375 0.0625 -0.453125 0.0625q-0.40625 0 -0.609375 -0.234375q-0.203125 -0.25 -0.203125 -0.703125l0 -2.171875l-0.640625 0l0 -0.46875l0.640625 0l0 -0.8593712l0.59375 0zm2.8305817 4.437496q-0.71875 0 -1.171875 -0.46875q-0.453125 -0.46875 -0.453125 -1.25l0 -0.109375q0 -0.53125 0.203125 -0.9375q0.203125 -0.40625 0.5625 -0.640625q0.359375 -0.234375 0.78125 -0.234375q0.6875 0 1.0625 0.453125q0.375 0.453125 0.375 1.28125l0 0.25l-2.375 0q0.015625 0.53125 0.296875 0.859375q0.296875 0.3125 0.75 0.3125q0.3125 0 0.53125 -0.125q0.21875 -0.140625 0.390625 -0.359375l0.359375 0.296875q-0.4375 0.671875 -1.3125 0.671875zm-0.078125 -3.15625q-0.375 0 -0.625 0.265625q-0.234375 0.265625 -0.296875 0.75l1.765625 0l0 -0.046875q-0.03125 -0.453125 -0.25 -0.703125q-0.21875 -0.265625 -0.59375 -0.265625z" fill-rule="nonzero"/><path fill="#e06666" d="m8.0 112.51706l0 0c0 -6.4186783 5.203368 -11.622047 11.622047 -11.622047l33.795277 0l0 0c3.0823555 0 6.038471 1.2244644 8.218029 3.4040222c2.179554 2.1795578 3.4040146 5.135666 3.4040146 8.218025l0 0l0 0c0 6.4186783 -5.2033653 11.622047 -11.622044 11.622047l-33.795277 0c-6.418679 0 -11.622047 -5.203369 -11.622047 -11.622047z" fill-rule="evenodd"/><path fill="#ffffff" d="m24.356066 111.401436l0.015625 0.390625q0.390625 -0.453125 1.046875 -0.453125q0.734375 0 1.0 0.5625q0.1875 -0.25 0.46875 -0.40625q0.28125 -0.15625 0.65625 -0.15625q1.15625 0 1.171875 1.21875l0 2.359375l-0.59375 0l0 -2.328125q0 -0.375 -0.171875 -0.5625q-0.171875 -0.1875 -0.578125 -0.1875q-0.328125 0 -0.5625 0.203125q-0.21875 0.203125 -0.25 0.546875l0 2.328125l-0.609375 0l0 -2.296875q0 -0.78125 -0.75 -0.78125q-0.59375 0 -0.8125 0.515625l0 2.5625l-0.59375 0l0 -3.515625l0.5625 0zm7.443344 3.515625q-0.046875 -0.109375 -0.078125 -0.375q-0.421875 0.4375 -1.0 0.4375q-0.53125 0 -0.859375 -0.28125q-0.328125 -0.296875 -0.328125 -0.75q0 -0.5625 0.40625 -0.859375q0.421875 -0.296875 1.1875 -0.296875l0.578125 0l0 -0.28125q0 -0.3125 -0.1875 -0.5q-0.1875 -0.1875 -0.5625 -0.1875q-0.3125 0 -0.53125 0.171875q-0.21875 0.15625 -0.21875 0.375l-0.609375 0q0 -0.265625 0.1875 -0.5q0.1875 -0.25 0.5 -0.390625q0.328125 -0.140625 0.71875 -0.140625q0.609375 0 0.953125 0.3125q0.3437481 0.296875 0.3593731 0.828125l0 1.609375q0 0.484375 0.109375 0.78125l0 0.046875l-0.6249981 0zm-1.0 -0.453125q0.28125 0 0.53125 -0.140625q0.265625 -0.15625 0.375 -0.390625l0 -0.71875l-0.46875 0q-1.109375 0 -1.109375 0.640625q0 0.28125 0.1875 0.453125q0.1875 0.15625 0.484375 0.15625zm3.011259 -3.0625l0.015625 0.390625q0.390625 -0.453125 1.046875 -0.453125q0.734375 0 1.0 0.5625q0.1875 -0.25 0.46875 -0.40625q0.28125 -0.15625 0.65625 -0.15625q1.15625 0 1.171875 1.21875l0 2.359375l-0.59375 0l0 -2.328125q0 -0.375 -0.171875 -0.5625q-0.171875 -0.1875 -0.578125 -0.1875q-0.328125 0 -0.5625 0.203125q-0.21875 0.203125 -0.25 0.546875l0 2.328125l-0.609375 0l0 -2.296875q0 -0.78125 -0.75 -0.78125q-0.59375 0 -0.8125 0.515625l0 2.5625l-0.59375 0l0 -3.515625l0.5625 0zm5.833969 0l0.015625 0.390625q0.390625 -0.453125 1.046875 -0.453125q0.734375 0 1.0 0.5625q0.1875 -0.25 0.46875 -0.40625q0.28125 -0.15625 0.65625 -0.15625q1.15625 0 1.171875 1.21875l0 2.359375l-0.59375 0l0 -2.328125q0 -0.375 -0.171875 -0.5625q-0.171875 -0.1875 -0.578125 -0.1875q-0.328125 0 -0.5625 0.203125q-0.21875 0.203125 -0.25 0.546875l0 2.328125l-0.609375 0l0 -2.296875q0 -0.78125 -0.75 -0.78125q-0.59375 0 -0.8125 0.515625l0 2.5625l-0.59375 0l0 -3.515625l0.5625 0zm7.443344 3.515625q-0.046875 -0.109375 -0.078125 -0.375q-0.421875 0.4375 -1.0 0.4375q-0.53125 0 -0.859375 -0.28125q-0.328125 -0.296875 -0.328125 -0.75q0 -0.5625 0.40625 -0.859375q0.421875 -0.296875 1.1875 -0.296875l0.578125 0l0 -0.28125q0 -0.3125 -0.1875 -0.5q-0.1875 -0.1875 -0.5625 -0.1875q-0.3125 0 -0.53125 0.171875q-0.21875 0.15625 -0.21875 0.375l-0.609375 0q0 -0.265625 0.1875 -0.5q0.1875 -0.25 0.5 -0.390625q0.328125 -0.140625 0.71875 -0.140625q0.609375 0 0.953125 0.3125q0.34375 0.296875 0.359375 0.828125l0 1.609375q0 0.484375 0.109375 0.78125l0 0.046875l-0.625 0zm-1.0 -0.453125q0.28125 0 0.53125 -0.140625q0.265625 -0.15625 0.375 -0.390625l0 -0.71875l-0.46875 0q-1.109375 0 -1.109375 0.640625q0 0.28125 0.1875 0.453125q0.1875 0.15625 0.484375 0.15625zm3.105011 0.453125l-0.609375 0l0 -5.0l0.609375 0l0 5.0z" fill-rule="nonzero"/><path fill="#e06666" d="m185.33354 112.51706l0 0c0 -6.4186783 5.203369 -11.622047 11.62204 -11.622047l33.795273 0l0 0c3.082367 0 6.0384827 1.2244644 8.218033 3.4040222c2.1795502 2.1795578 3.4040222 5.135666 3.4040222 8.218025l0 0l0 0c0 6.4186783 -5.203369 11.622047 -11.622055 11.622047l-33.795273 0c-6.4186707 0 -11.62204 -5.203369 -11.62204 -11.622047z" fill-rule="evenodd"/><path fill="#ffffff" d="m209.09102 114.91706l0 -3.046875l-0.5625 0l0 -0.46875l0.5625 0l0 -0.359375q0 -0.5625 0.296875 -0.875q0.3125 -0.3125 0.859375 -0.3125q0.203125 0 0.421875 0.0625l-0.046875 0.484375q-0.140625 -0.03125 -0.3125 -0.03125q-0.296875 0 -0.453125 0.171875q-0.15625 0.171875 -0.15625 0.484375l0 0.375l0.75 0l0 0.46875l-0.75 0l0 3.046875l-0.609375 0zm2.6702118 0l-0.609375 0l0 -3.515625l0.609375 0l0 3.515625zm-0.65625 -4.453125q0 -0.140625 0.09375 -0.234375q0.09375 -0.109375 0.265625 -0.109375q0.171875 0 0.265625 0.109375q0.09375 0.09375 0.09375 0.25q0 0.140625 -0.09375 0.234375q-0.09375 0.09375 -0.265625 0.09375q-0.171875 0 -0.265625 -0.09375q-0.09375 -0.09375 -0.09375 -0.25zm3.6621857 3.515625q0 -0.234375 -0.1875 -0.375q-0.171875 -0.140625 -0.640625 -0.234375q-0.453125 -0.09375 -0.71875 -0.234375q-0.265625 -0.140625 -0.40625 -0.328125q-0.125 -0.1875 -0.125 -0.4375q0 -0.4375 0.359375 -0.734375q0.375 -0.296875 0.953125 -0.296875q0.59375 0 0.96875 0.3125q0.375 0.296875 0.375 0.78125l-0.609375 0q0 -0.25 -0.21875 -0.421875q-0.203125 -0.1875 -0.515625 -0.1875q-0.328125 0 -0.515625 0.15625q-0.1875 0.140625 -0.1875 0.359375q0 0.21875 0.171875 0.34375q0.171875 0.109375 0.625 0.203125q0.453125 0.09375 0.71875 0.234375q0.28125 0.140625 0.421875 0.34375q0.140625 0.203125 0.140625 0.484375q0 0.46875 -0.390625 0.75q-0.375 0.28125 -0.96875 0.28125q-0.421875 0 -0.75 -0.140625q-0.328125 -0.15625 -0.515625 -0.421875q-0.171875 -0.265625 -0.171875 -0.578125l0.59375 0q0.015625 0.296875 0.234375 0.484375q0.234375 0.171875 0.609375 0.171875q0.34375 0 0.546875 -0.140625q0.203125 -0.140625 0.203125 -0.375zm1.9946289 -2.15625q0.390625 -0.484375 1.03125 -0.484375q1.125 0 1.125 1.25l0 2.328125l-0.59375 0l0 -2.328125q-0.015625 -0.375 -0.1875 -0.5625q-0.15625 -0.1875 -0.515625 -0.1875q-0.296875 0 -0.515625 0.15625q-0.21875 0.15625 -0.34375 0.421875l0 2.5l-0.609375 0l0 -5.0l0.609375 0l0 1.90625z" fill-rule="nonzero"/><path fill="#307bf3" d="m245.0356 112.51706l0 0c0 -6.4186783 5.203369 -11.622047 11.622055 -11.622047l33.795258 0l0 0c3.082367 0 6.0384827 1.2244644 8.218048 3.4040222c2.179535 2.1795578 3.4040222 5.135666 3.4040222 8.218025l0 0l0 0c0 6.4186783 -5.203369 11.622047 -11.62207 11.622047l-33.795258 0c-6.418686 0 -11.622055 -5.203369 -11.622055 -11.622047z" fill-rule="evenodd"/><path fill="#ffffff" d="m265.7122 114.91706l-0.609375 0l0 -3.515625l0.609375 0l0 3.515625zm-0.65625 -4.453125q0 -0.140625 0.09375 -0.234375q0.09375 -0.109375 0.265625 -0.109375q0.171875 0 0.265625 0.109375q0.09375 0.09375 0.09375 0.25q0 0.140625 -0.09375 0.234375q-0.09375 0.09375 -0.265625 0.09375q-0.171875 0 -0.265625 -0.09375q-0.09375 -0.09375 -0.09375 -0.25zm2.193451 0.9375l0.015625 0.4375q0.40625 -0.5 1.046875 -0.5q1.125 0 1.125 1.25l0 2.328125l-0.59375 0l0 -2.328125q-0.015625 -0.375 -0.1875 -0.5625q-0.15625 -0.1875 -0.515625 -0.1875q-0.296875 0 -0.515625 0.15625q-0.21875 0.15625 -0.34375 0.421875l0 2.5l-0.609375 0l0 -3.515625l0.578125 0zm5.141388 2.578125q0 -0.234375 -0.1875 -0.375q-0.171875 -0.140625 -0.640625 -0.234375q-0.453125 -0.09375 -0.71875 -0.234375q-0.265625 -0.140625 -0.40625 -0.328125q-0.125 -0.1875 -0.125 -0.4375q0 -0.4375 0.359375 -0.734375q0.375 -0.296875 0.953125 -0.296875q0.59375 0 0.96875 0.3125q0.375 0.296875 0.375 0.78125l-0.609375 0q0 -0.25 -0.21875 -0.421875q-0.203125 -0.1875 -0.515625 -0.1875q-0.328125 0 -0.515625 0.15625q-0.1875 0.140625 -0.1875 0.359375q0 0.21875 0.171875 0.34375q0.171875 0.109375 0.625 0.203125q0.453125 0.09375 0.71875 0.234375q0.28125 0.140625 0.421875 0.34375q0.140625 0.203125 0.140625 0.484375q0 0.46875 -0.390625 0.75q-0.375 0.28125 -0.96875 0.28125q-0.421875 0 -0.75 -0.140625q-0.328125 -0.15625 -0.515625 -0.421875q-0.171875 -0.265625 -0.171875 -0.578125l0.59375 0q0.015625 0.296875 0.234375 0.484375q0.234375 0.171875 0.609375 0.171875q0.34375 0 0.546875 -0.140625q0.203125 -0.140625 0.203125 -0.375zm2.854004 1.0q-0.71875 0 -1.171875 -0.46875q-0.453125 -0.46875 -0.453125 -1.25l0 -0.109375q0 -0.53125 0.203125 -0.9375q0.203125 -0.40625 0.5625 -0.640625q0.359375 -0.234375 0.78125 -0.234375q0.6875 0 1.0625 0.453125q0.375 0.453125 0.375 1.28125l0 0.25l-2.375 0q0.015625 0.53125 0.296875 0.859375q0.296875 0.3125 0.75 0.3125q0.3125 0 0.53125 -0.125q0.21875 -0.140625 0.390625 -0.359375l0.359375 0.296875q-0.4375 0.671875 -1.3125 0.671875zm-0.078125 -3.15625q-0.375 0 -0.625 0.265625q-0.234375 0.265625 -0.296875 0.75l1.765625 0l0 -0.046875q-0.03125 -0.453125 -0.25 -0.703125q-0.21875 -0.265625 -0.59375 -0.265625zm3.5419922 2.671875q0.328125 0 0.5625 -0.1875q0.25 -0.203125 0.265625 -0.5l0.578125 0q-0.015625 0.296875 -0.21875 0.578125q-0.1875 0.265625 -0.515625 0.4375q-0.3125 0.15625 -0.671875 0.15625q-0.71875 0 -1.140625 -0.46875q-0.421875 -0.484375 -0.421875 -1.3125l0 -0.109375q0 -0.515625 0.1875 -0.90625q0.1875 -0.40625 0.53125 -0.625q0.359375 -0.21875 0.84375 -0.21875q0.59375 0 0.984375 0.359375q0.390625 0.34375 0.421875 0.90625l-0.578125 0q-0.015625 -0.34375 -0.25 -0.5625q-0.234375 -0.21875 -0.578125 -0.21875q-0.453125 0 -0.703125 0.34375q-0.25 0.328125 -0.25 0.953125l0 0.109375q0 0.609375 0.25 0.9375q0.25 0.328125 0.703125 0.328125zm2.8903809 -3.953125l0 0.859375l0.65625 0l0 0.46875l-0.65625 0l0 2.171875q0 0.21875 0.09375 0.328125q0.09375 0.09375 0.296875 0.09375q0.109375 0 0.28125 -0.03125l0 0.484375q-0.234375 0.0625 -0.453125 0.0625q-0.40625 0 -0.609375 -0.234375q-0.203125 -0.25 -0.203125 -0.703125l0 -2.171875l-0.640625 0l0 -0.46875l0.640625 0l0 -0.859375l0.59375 0z" fill-rule="nonzero"/><path fill="#307bf3" d="m364.24414 112.51706l0 0c0 -6.4186783 5.203369 -11.622047 11.62207 -11.622047l33.795258 0l0 0c3.082367 0 6.0384827 1.2244644 8.218048 3.4040222c2.179535 2.1795578 3.4040222 5.135666 3.4040222 8.218025l0 0l0 0c0 6.4186783 -5.203369 11.622047 -11.62207 11.622047l-33.795258 0c-6.418701 0 -11.62207 -5.203369 -11.62207 -11.622047z" fill-rule="evenodd"/><path fill="#ffffff" d="m382.546 114.91706q-0.046875 -0.109375 -0.078125 -0.375q-0.421875 0.4375 -1.0 0.4375q-0.53125 0 -0.859375 -0.28125q-0.328125 -0.296875 -0.328125 -0.75q0 -0.5625 0.40625 -0.859375q0.421875 -0.296875 1.1875 -0.296875l0.578125 0l0 -0.28125q0 -0.3125 -0.1875 -0.5q-0.1875 -0.1875 -0.5625 -0.1875q-0.3125 0 -0.53125 0.171875q-0.21875 0.15625 -0.21875 0.375l-0.609375 0q0 -0.265625 0.1875 -0.5q0.1875 -0.25 0.5 -0.390625q0.328125 -0.140625 0.71875 -0.140625q0.609375 0 0.953125 0.3125q0.34375 0.296875 0.359375 0.828125l0 1.609375q0 0.484375 0.109375 0.78125l0 0.046875l-0.625 0zm-1.0 -0.453125q0.28125 0 0.53125 -0.140625q0.265625 -0.15625 0.375 -0.390625l0 -0.71875l-0.46875 0q-1.109375 0 -1.109375 0.640625q0 0.28125 0.1875 0.453125q0.1875 0.15625 0.484375 0.15625zm4.151886 -2.53125q-0.140625 -0.015625 -0.296875 -0.015625q-0.59375 0 -0.796875 0.5l0 2.5l-0.609375 0l0 -3.515625l0.59375 0l0 0.40625q0.296875 -0.46875 0.84375 -0.46875q0.171875 0 0.265625 0.046875l0 0.546875zm2.7210693 2.984375q-0.046875 -0.109375 -0.078125 -0.375q-0.421875 0.4375 -1.0 0.4375q-0.53125 0 -0.859375 -0.28125q-0.328125 -0.296875 -0.328125 -0.75q0 -0.5625 0.40625 -0.859375q0.421875 -0.296875 1.1875 -0.296875l0.578125 0l0 -0.28125q0 -0.3125 -0.1875 -0.5q-0.1875 -0.1875 -0.5625 -0.1875q-0.3125 0 -0.53125 0.171875q-0.21875 0.15625 -0.21875 0.375l-0.609375 0q0 -0.265625 0.1875 -0.5q0.1875 -0.25 0.5 -0.390625q0.328125 -0.140625 0.71875 -0.140625q0.609375 0 0.953125 0.3125q0.34375 0.296875 0.359375 0.828125l0 1.609375q0 0.484375 0.109375 0.78125l0 0.046875l-0.625 0zm-1.0 -0.453125q0.28125 0 0.53125 -0.140625q0.265625 -0.15625 0.375 -0.390625l0 -0.71875l-0.46875 0q-1.109375 0 -1.109375 0.640625q0 0.28125 0.1875 0.453125q0.1875 0.15625 0.484375 0.15625zm3.855011 0.03125q0.328125 0 0.5625 -0.1875q0.25 -0.203125 0.265625 -0.5l0.578125 0q-0.015625 0.296875 -0.21875 0.578125q-0.1875 0.265625 -0.515625 0.4375q-0.3125 0.15625 -0.671875 0.15625q-0.71875 0 -1.140625 -0.46875q-0.421875 -0.484375 -0.421875 -1.3125l0 -0.109375q0 -0.515625 0.1875 -0.90625q0.1875 -0.40625 0.53125 -0.625q0.359375 -0.21875 0.84375 -0.21875q0.59375 0 0.984375 0.359375q0.390625 0.34375 0.421875 0.90625l-0.578125 0q-0.015625 -0.34375 -0.25 -0.5625q-0.234375 -0.21875 -0.578125 -0.21875q-0.453125 0 -0.703125 0.34375q-0.25 0.328125 -0.25 0.953125l0 0.109375q0 0.609375 0.25 0.9375q0.25 0.328125 0.703125 0.328125zm2.6872559 -2.671875q0.390625 -0.484375 1.03125 -0.484375q1.125 0 1.125 1.25l0 2.328125l-0.59375 0l0 -2.328125q-0.015625 -0.375 -0.1875 -0.5625q-0.15625 -0.1875 -0.515625 -0.1875q-0.296875 0 -0.515625 0.15625q-0.21875 0.15625 -0.34375 0.421875l0 2.5l-0.609375 0l0 -5.0l0.609375 0l0 1.90625zm3.6348877 -0.421875l0.015625 0.4375q0.40625 -0.5 1.046875 -0.5q1.125 0 1.125 1.25l0 2.328125l-0.59375 0l0 -2.328125q-0.015625 -0.375 -0.1875 -0.5625q-0.15625 -0.1875 -0.515625 -0.1875q-0.296875 0 -0.515625 0.15625q-0.21875 0.15625 -0.34375 0.421875l0 2.5l-0.609375 0l0 -3.515625l0.578125 0zm3.750763 3.515625l-0.609375 0l0 -3.515625l0.609375 0l0 3.515625zm-0.65625 -4.453125q0 -0.140625 0.09375 -0.234375q0.09375 -0.109375 0.265625 -0.109375q0.171875 0 0.265625 0.109375q0.09375 0.09375 0.09375 0.25q0 0.140625 -0.09375 0.234375q-0.09375 0.09375 -0.265625 0.09375q-0.171875 0 -0.265625 -0.09375q-0.09375 -0.09375 -0.09375 -0.25zm1.4747009 2.671875q0 -0.8125 0.375 -1.296875q0.390625 -0.5 1.015625 -0.5q0.609375 0 0.96875 0.421875l0 -1.84375l0.609375 0l0 5.0l-0.5625 0l-0.03125 -0.375q-0.359375 0.4375 -1.0 0.4375q-0.609375 0 -1.0 -0.5q-0.375 -0.5 -0.375 -1.296875l0 -0.046875zm0.59375 0.0625q0 0.59375 0.25 0.9375q0.25 0.34375 0.6875 0.34375q0.5625 0 0.828125 -0.515625l0 -1.625q-0.265625 -0.5 -0.828125 -0.5q-0.4375 0 -0.6875 0.34375q-0.25 0.34375 -0.25 1.015625z" fill-rule="nonzero"/><path fill="#000000" fill-opacity="0.0" d="m240.16518 29.615725l0 12.00902l118.866135 0l0 12.022476" fill-rule="evenodd"/><path stroke="#c2c2c2" stroke-width="1.0" stroke-linejoin="round" stroke-linecap="butt" d="m240.16518 29.615725l0 12.00902l118.866135 0l0 12.022476" fill-rule="evenodd"/><path fill="#000000" fill-opacity="0.0" d="m130.23053 53.63362l0 -12.009022l109.921265 0l0 -12.022476" fill-rule="evenodd"/><path stroke="#c2c2c2" stroke-width="1.0" stroke-linejoin="round" stroke-linecap="butt" d="m130.23053 53.63362l0 -12.009022l109.921265 0l0 -12.022476" fill-rule="evenodd"/><path fill="#000000" fill-opacity="0.0" d="m130.23053 76.877716l0 12.008537l83.62204 0l0 12.022957" fill-rule="evenodd"/><path stroke="#c2c2c2" stroke-width="1.0" stroke-linejoin="round" stroke-linecap="butt" d="m130.23053 76.877716l0 12.008537l83.62204 0l0 12.022957" fill-rule="evenodd"/><path fill="#000000" fill-opacity="0.0" d="m36.519684 100.89501l0 -12.008537l93.70079 0l0 -12.022957" fill-rule="evenodd"/><path stroke="#c2c2c2" stroke-width="1.0" stroke-linejoin="round" stroke-linecap="butt" d="m36.519684 100.89501l0 -12.008537l93.70079 0l0 -12.022957" fill-rule="evenodd"/><path fill="#000000" fill-opacity="0.0" d="m359.03946 76.877716l0 12.008537l33.7323 0l0 12.022957" fill-rule="evenodd"/><path stroke="#c2c2c2" stroke-width="1.0" stroke-linejoin="round" stroke-linecap="butt" d="m359.03946 76.877716l0 12.008537l33.7323 0l0 12.022957" fill-rule="evenodd"/><path fill="#000000" fill-opacity="0.0" d="m273.5553 100.89501l0 -12.008537l85.480286 0l0 -12.022957" fill-rule="evenodd"/><path stroke="#c2c2c2" stroke-width="1.0" stroke-linejoin="round" stroke-linecap="butt" d="m273.5553 100.89501l0 -12.008537l85.480286 0l0 -12.022957" fill-rule="evenodd"/><path fill="#e06666" d="m68.14173 112.51706l0 0c0 -6.4186783 5.203369 -11.622047 11.622047 -11.622047l33.795273 0l0 0c3.0823593 0 6.038475 1.2244644 8.218033 3.4040222c2.1795578 2.1795578 3.4040146 5.135666 3.4040146 8.218025l0 0l0 0c0 6.4186783 -5.2033615 11.622047 -11.622047 11.622047l-33.795273 0c-6.4186783 0 -11.622047 -5.203369 -11.622047 -11.622047z" fill-rule="evenodd"/><path fill="#ffffff" d="m89.59544 111.932686q-0.140625 -0.015625 -0.296875 -0.015625q-0.59375 0 -0.796875 0.5l0 2.5l-0.609375 0l0 -3.515625l0.59375 0l0 0.40625q0.296875 -0.46875 0.84375 -0.46875q0.171875 0 0.265625 0.046875l0 0.546875zm2.0179596 3.046875q-0.71875 0 -1.171875 -0.46875q-0.453125 -0.46875 -0.453125 -1.25l0 -0.109375q0 -0.53125 0.203125 -0.9375q0.203125 -0.40625 0.5625 -0.640625q0.359375 -0.234375 0.78125 -0.234375q0.6875 0 1.0625 0.453125q0.375 0.453125 0.375 1.28125l0 0.25l-2.375 0q0.015625 0.53125 0.296875 0.859375q0.296875 0.3125 0.75 0.3125q0.3125 0 0.53125 -0.125q0.21875 -0.140625 0.390625 -0.359375l0.359375 0.296875q-0.4375 0.671875 -1.3125 0.671875zm-0.078125 -3.15625q-0.375 0 -0.625 0.265625q-0.234375 0.265625 -0.296875 0.75l1.765625 0l0 -0.046875q-0.03125 -0.453125 -0.25 -0.703125q-0.21875 -0.265625 -0.59375 -0.265625zm5.1045074 1.375q0 0.796875 -0.375 1.296875q-0.359375 0.484375 -0.984375 0.484375q-0.640625 0 -1.0 -0.40625l0 1.703125l-0.609375 0l0 -4.875l0.546875 0l0.03125 0.390625q0.375 -0.453125 1.015625 -0.453125q0.640625 0 1.0 0.484375q0.375 0.46875 0.375 1.3125l0 0.0625zm-0.59375 -0.0625q0 -0.59375 -0.265625 -0.9375q-0.25 -0.359375 -0.6875 -0.359375q-0.546875 0 -0.8125 0.484375l0 1.6875q0.265625 0.484375 0.8125 0.484375q0.4375 0 0.6875 -0.34375q0.265625 -0.34375 0.265625 -1.015625zm2.1718903 -2.59375l0 0.859375l0.65625 0l0 0.46875l-0.65625 0l0 2.171875q0 0.21875 0.09375 0.328125q0.09375 0.09375 0.296875 0.09375q0.109375 0 0.28125 -0.03125l0 0.484375q-0.234375 0.0625 -0.453125 0.0625q-0.40625 0 -0.609375 -0.234375q-0.203125 -0.25 -0.203125 -0.703125l0 -2.171875l-0.640625 0l0 -0.46875l0.640625 0l0 -0.859375l0.59375 0zm2.0180817 4.375l-0.609375 0l0 -3.515625l0.609375 0l0 3.515625zm-0.65625 -4.453125q0 -0.140625 0.09375 -0.234375q0.09375 -0.109375 0.265625 -0.109375q0.171875 0 0.265625 0.109375q0.09375 0.09375 0.09375 0.25q0 0.140625 -0.09375 0.234375q-0.09375 0.09375 -0.265625 0.09375q-0.171875 0 -0.265625 -0.09375q-0.09375 -0.09375 -0.09375 -0.25zm2.2715607 4.453125l-0.609375 0l0 -5.0l0.609375 0l0 5.0zm2.4278107 0.0625q-0.71875 0 -1.171875 -0.46875q-0.453125 -0.46875 -0.453125 -1.25l0 -0.109375q0 -0.53125 0.203125 -0.9375q0.203125 -0.40625 0.5625 -0.640625q0.359375 -0.234375 0.78125 -0.234375q0.6875 0 1.0625 0.453125q0.375 0.453125 0.375 1.28125l0 0.25l-2.375 0q0.015625 0.53125 0.296875 0.859375q0.296875 0.3125 0.75 0.3125q0.3125 0 0.53125 -0.125q0.21875 -0.140625 0.390625 -0.359375l0.359375 0.296875q-0.4375 0.671875 -1.3125 0.671875zm-0.078125 -3.15625q-0.375 0 -0.625 0.265625q-0.234375 0.265625 -0.296875 0.75l1.765625 0l0 -0.046875q-0.03125 -0.453125 -0.25 -0.703125q-0.21875 -0.265625 -0.59375 -0.265625z" fill-rule="nonzero"/><path fill="#e06666" d="m126.73753 112.51706l0 0c0 -6.4186783 5.203369 -11.622047 11.62204 -11.622047l33.795288 0l0 0c3.0823517 0 6.0384674 1.2244644 8.218018 3.4040222c2.1795654 2.1795578 3.4040222 5.135666 3.4040222 8.218025l0 0l0 0c0 6.4186783 -5.203369 11.622047 -11.62204 11.622047l-33.795288 0c-6.4186707 0 -11.62204 -5.203369 -11.62204 -11.622047z" fill-rule="evenodd"/><path fill="#ffffff" d="m139.7162 115.19706q-0.0625 -0.125 -0.09375 -0.453125q-0.515625 0.53125 -1.203125 0.53125q-0.625 0 -1.03125 -0.34375q-0.40625 -0.359375 -0.40625 -0.90625q0 -0.65625 0.5 -1.015625q0.515625 -0.375 1.421875 -0.375l0.703125 0l0 -0.328125q0 -0.390625 -0.234375 -0.609375q-0.21875 -0.21875 -0.65625 -0.21875q-0.390625 0 -0.65625 0.203125q-0.265625 0.1875 -0.265625 0.453125l-0.71875 0q0 -0.3125 0.21875 -0.609375q0.234375 -0.296875 0.609375 -0.46875q0.390625 -0.171875 0.84375 -0.171875q0.734375 0 1.140625 0.375q0.421875 0.359375 0.4375 1.0l0 1.953125q0 0.578125 0.15625 0.921875l0 0.0625l-0.765625 0zm-1.203125 -0.546875q0.34375 0 0.640625 -0.171875q0.3125 -0.1875 0.453125 -0.46875l0 -0.859375l-0.5625 0q-1.328125 0 -1.328125 0.765625q0 0.34375 0.21875 0.546875q0.234375 0.1875 0.578125 0.1875zm3.6328125 -3.6875l0.015625 0.46875q0.46875 -0.546875 1.25 -0.546875q0.890625 0 1.203125 0.6875q0.21875 -0.3125 0.546875 -0.5q0.34375 -0.1875 0.8125 -0.1875q1.390625 0 1.40625 1.484375l0 2.828125l-0.71875 0l0 -2.796875q0 -0.453125 -0.21875 -0.671875q-0.203125 -0.21875 -0.6875 -0.21875q-0.40625 0 -0.671875 0.234375q-0.265625 0.234375 -0.296875 0.640625l0 2.8125l-0.734375 0l0 -2.765625q0 -0.921875 -0.90625 -0.921875q-0.703125 0 -0.96875 0.59375l0 3.09375l-0.71875 0l0 -4.234375l0.6875 0zm9.902344 2.171875q0 0.953125 -0.453125 1.546875q-0.4375 0.59375 -1.1875 0.59375q-0.765625 0 -1.21875 -0.484375l0 2.03125l-0.71875 0l0 -5.859375l0.65625 0l0.046875 0.46875q0.4375 -0.546875 1.21875 -0.546875q0.765625 0 1.203125 0.578125q0.453125 0.578125 0.453125 1.59375l0 0.078125zm-0.734375 -0.09375q0 -0.703125 -0.3125 -1.109375q-0.296875 -0.421875 -0.828125 -0.421875q-0.65625 0 -0.984375 0.578125l0 2.015625q0.328125 0.578125 1.0 0.578125q0.515625 0 0.8125 -0.40625q0.3125 -0.421875 0.3125 -1.234375zm2.3632812 -1.5625q0.484375 -0.59375 1.25 -0.59375q1.34375 0 1.359375 1.515625l0 2.796875l-0.71875 0l0 -2.796875q-0.015625 -0.453125 -0.21875 -0.671875q-0.203125 -0.21875 -0.640625 -0.21875q-0.34375 0 -0.609375 0.1875q-0.265625 0.1875 -0.421875 0.484375l0 3.015625l-0.71875 0l0 -6.0l0.71875 0l0 2.28125zm4.46875 3.71875l-0.71875 0l0 -4.234375l0.71875 0l0 4.234375zm-0.78125 -5.34375q0 -0.1875 0.109375 -0.296875q0.109375 -0.125 0.3125 -0.125q0.21875 0 0.328125 0.125q0.109375 0.109375 0.109375 0.296875q0 0.171875 -0.109375 0.296875q-0.109375 0.109375 -0.328125 0.109375q-0.203125 0 -0.3125 -0.109375q-0.109375 -0.125 -0.109375 -0.296875zm5.5195312 3.28125q0 0.96875 -0.453125 1.5625q-0.4375 0.578125 -1.1875 0.578125q-0.796875 0 -1.234375 -0.5625l-0.03125 0.484375l-0.671875 0l0 -6.0l0.71875 0l0 2.234375q0.4375 -0.546875 1.203125 -0.546875q0.78125 0 1.21875 0.59375q0.4375 0.578125 0.4375 1.59375l0 0.0625zm-0.71875 -0.09375q0 -0.734375 -0.296875 -1.125q-0.28125 -0.40625 -0.8125 -0.40625q-0.71875 0 -1.03125 0.65625l0 1.828125q0.34375 0.671875 1.046875 0.671875q0.515625 0 0.796875 -0.40625q0.296875 -0.40625 0.296875 -1.21875zm2.4101562 2.15625l-0.71875 0l0 -4.234375l0.71875 0l0 4.234375zm-0.78125 -5.34375q0 -0.1875 0.109375 -0.296875q0.109375 -0.125 0.3125 -0.125q0.21875 0 0.328125 0.125q0.109375 0.109375 0.109375 0.296875q0 0.171875 -0.109375 0.296875q-0.109375 0.109375 -0.328125 0.109375q-0.203125 0 -0.3125 -0.109375q-0.109375 -0.125 -0.109375 -0.296875zm4.5507812 5.34375q-0.0625 -0.125 -0.09375 -0.453125q-0.515625 0.53125 -1.203125 0.53125q-0.625 0 -1.03125 -0.34375q-0.40625 -0.359375 -0.40625 -0.90625q0 -0.65625 0.5 -1.015625q0.515625 -0.375 1.421875 -0.375l0.703125 0l0 -0.328125q0 -0.390625 -0.234375 -0.609375q-0.21875 -0.21875 -0.65625 -0.21875q-0.390625 0 -0.65625 0.203125q-0.265625 0.1875 -0.265625 0.453125l-0.71875 0q0 -0.3125 0.21875 -0.609375q0.234375 -0.296875 0.609375 -0.46875q0.390625 -0.171875 0.84375 -0.171875q0.734375 0 1.140625 0.375q0.421875 0.359375 0.4375 1.0l0 1.953125q0 0.578125 0.15625 0.921875l0 0.0625l-0.765625 0zm-1.203125 -0.546875q0.34375 0 0.640625 -0.171875q0.3125 -0.1875 0.453125 -0.46875l0 -0.859375l-0.5625 0q-1.328125 0 -1.328125 0.765625q0 0.34375 0.21875 0.546875q0.234375 0.1875 0.578125 0.1875zm3.6328125 -3.6875l0.015625 0.53125q0.484375 -0.609375 1.265625 -0.609375q1.34375 0 1.359375 1.515625l0 2.796875l-0.71875 0l0 -2.796875q-0.015625 -0.453125 -0.21875 -0.671875q-0.203125 -0.21875 -0.640625 -0.21875q-0.34375 0 -0.609375 0.1875q-0.265625 0.1875 -0.421875 0.484375l0 3.015625l-0.71875 0l0 -4.234375l0.6875 0z" fill-rule="nonzero"/><path fill="#307bf3" d="m304.6404 112.51706l0 0c0 -6.4186783 5.203369 -11.622047 11.62207 -11.622047l33.795258 0l0 0c3.082367 0 6.0384827 1.2244644 8.218018 3.4040222c2.1795654 2.1795578 3.4040222 5.135666 3.4040222 8.218025l0 0l0 0c0 6.4186783 -5.203369 11.622047 -11.62204 11.622047l-33.795258 0c-6.418701 0 -11.62207 -5.203369 -11.62207 -11.622047z" fill-rule="evenodd"/><path fill="#ffffff" d="m318.55112 114.495186q0.328125 0 0.5625 -0.1875q0.25 -0.203125 0.265625 -0.5l0.578125 0q-0.015625 0.296875 -0.21875 0.578125q-0.1875 0.265625 -0.515625 0.4375q-0.3125 0.15625 -0.671875 0.15625q-0.71875 0 -1.140625 -0.46875q-0.421875 -0.484375 -0.421875 -1.3125l0 -0.109375q0 -0.515625 0.1875 -0.90625q0.1875 -0.40625 0.53125 -0.625q0.359375 -0.21875 0.84375 -0.21875q0.59375 0 0.984375 0.359375q0.390625 0.34375 0.421875 0.90625l-0.578125 0q-0.015625 -0.34375 -0.25 -0.5625q-0.234375 -0.21875 -0.578125 -0.21875q-0.453125 0 -0.703125 0.34375q-0.25 0.328125 -0.25 0.953125l0 0.109375q0 0.609375 0.25 0.9375q0.25 0.328125 0.703125 0.328125zm3.7810059 -2.5625q-0.140625 -0.015625 -0.296875 -0.015625q-0.59375 0 -0.796875 0.5l0 2.5l-0.609375 0l0 -3.515625l0.59375 0l0 0.40625q0.296875 -0.46875 0.84375 -0.46875q0.171875 0 0.265625 0.046875l0 0.546875zm2.7210693 2.640625q-0.34375 0.40625 -1.03125 0.40625q-0.5625 0 -0.859375 -0.328125q-0.296875 -0.328125 -0.296875 -0.96875l0 -2.28125l0.609375 0l0 2.265625q0 0.8125 0.640625 0.8125q0.6875 0 0.921875 -0.515625l0 -2.5625l0.609375 0l0 3.515625l-0.578125 0l-0.015625 -0.34375zm3.544403 -0.59375q0 -0.234375 -0.1875 -0.375q-0.171875 -0.140625 -0.640625 -0.234375q-0.453125 -0.09375 -0.71875 -0.234375q-0.265625 -0.140625 -0.40625 -0.328125q-0.125 -0.1875 -0.125 -0.4375q0 -0.4375 0.359375 -0.734375q0.375 -0.296875 0.953125 -0.296875q0.59375 0 0.96875 0.3125q0.375 0.296875 0.375 0.78125l-0.609375 0q0 -0.25 -0.21875 -0.421875q-0.203125 -0.1875 -0.515625 -0.1875q-0.328125 0 -0.515625 0.15625q-0.1875 0.140625 -0.1875 0.359375q0 0.21875 0.171875 0.34375q0.171875 0.109375 0.625 0.203125q0.453125 0.09375 0.71875 0.234375q0.28125 0.140625 0.421875 0.34375q0.140625 0.203125 0.140625 0.484375q0 0.46875 -0.390625 0.75q-0.375 0.28125 -0.96875 0.28125q-0.421875 0 -0.75 -0.140625q-0.328125 -0.15625 -0.515625 -0.421875q-0.171875 -0.265625 -0.171875 -0.578125l0.59375 0q0.015625 0.296875 0.234375 0.484375q0.234375 0.171875 0.609375 0.171875q0.34375 0 0.546875 -0.140625q0.203125 -0.140625 0.203125 -0.375zm2.197754 -3.4375l0 0.859375l0.65625 0l0 0.46875l-0.65625 0l0 2.171875q0 0.21875 0.09375 0.328125q0.09375 0.09375 0.296875 0.09375q0.109375 0 0.28125 -0.03125l0 0.484375q-0.234375 0.0625 -0.453125 0.0625q-0.40625 0 -0.609375 -0.234375q-0.203125 -0.25 -0.203125 -0.703125l0 -2.171875l-0.640625 0l0 -0.46875l0.640625 0l0 -0.859375l0.59375 0zm3.5336914 4.375q-0.046875 -0.109375 -0.078125 -0.375q-0.421875 0.4375 -1.0 0.4375q-0.53125 0 -0.859375 -0.28125q-0.328125 -0.296875 -0.328125 -0.75q0 -0.5625 0.40625 -0.859375q0.421875 -0.296875 1.1875 -0.296875l0.578125 0l0 -0.28125q0 -0.3125 -0.1875 -0.5q-0.1875 -0.1875 -0.5625 -0.1875q-0.3125 0 -0.53125 0.171875q-0.21875 0.15625 -0.21875 0.375l-0.609375 0q0 -0.265625 0.1875 -0.5q0.1875 -0.25 0.5 -0.390625q0.328125 -0.140625 0.71875 -0.140625q0.609375 0 0.953125 0.3125q0.34375 0.296875 0.359375 0.828125l0 1.609375q0 0.484375 0.109375 0.78125l0 0.046875l-0.625 0zm-1.0 -0.453125q0.28125 0 0.53125 -0.140625q0.265625 -0.15625 0.375 -0.390625l0 -0.71875l-0.46875 0q-1.109375 0 -1.109375 0.640625q0 0.28125 0.1875 0.453125q0.1875 0.15625 0.484375 0.15625zm3.855011 0.03125q0.328125 0 0.5625 -0.1875q0.25 -0.203125 0.265625 -0.5l0.578125 0q-0.015625 0.296875 -0.21875 0.578125q-0.1875 0.265625 -0.515625 0.4375q-0.3125 0.15625 -0.671875 0.15625q-0.71875 0 -1.140625 -0.46875q-0.421875 -0.484375 -0.421875 -1.3125l0 -0.109375q0 -0.515625 0.1875 -0.90625q0.1875 -0.40625 0.53125 -0.625q0.359375 -0.21875 0.84375 -0.21875q0.59375 0 0.984375 0.359375q0.390625 0.34375 0.421875 0.90625l-0.578125 0q-0.015625 -0.34375 -0.25 -0.5625q-0.234375 -0.21875 -0.578125 -0.21875q-0.453125 0 -0.703125 0.34375q-0.25 0.328125 -0.25 0.953125l0 0.109375q0 0.609375 0.25 0.9375q0.25 0.328125 0.703125 0.328125zm3.5466309 0.484375q-0.71875 0 -1.171875 -0.46875q-0.453125 -0.46875 -0.453125 -1.25l0 -0.109375q0 -0.53125 0.203125 -0.9375q0.203125 -0.40625 0.5625 -0.640625q0.359375 -0.234375 0.78125 -0.234375q0.6875 0 1.0625 0.453125q0.375 0.453125 0.375 1.28125l0 0.25l-2.375 0q0.015625 0.53125 0.296875 0.859375q0.296875 0.3125 0.75 0.3125q0.3125 0 0.53125 -0.125q0.21875 -0.140625 0.390625 -0.359375l0.359375 0.296875q-0.4375 0.671875 -1.3125 0.671875zm-0.078125 -3.15625q-0.375 0 -0.625 0.265625q-0.234375 0.265625 -0.296875 0.75l1.765625 0l0 -0.046875q-0.03125 -0.453125 -0.25 -0.703125q-0.21875 -0.265625 -0.59375 -0.265625zm4.3076477 3.09375q-0.046875 -0.109375 -0.078125 -0.375q-0.421875 0.4375 -1.0 0.4375q-0.53125 0 -0.859375 -0.28125q-0.328125 -0.296875 -0.328125 -0.75q0 -0.5625 0.40625 -0.859375q0.421875 -0.296875 1.1875 -0.296875l0.578125 0l0 -0.28125q0 -0.3125 -0.1875 -0.5q-0.1875 -0.1875 -0.5625 -0.1875q-0.3125 0 -0.53125 0.171875q-0.21875 0.15625 -0.21875 0.375l-0.609375 0q0 -0.265625 0.1875 -0.5q0.1875 -0.25 0.5 -0.390625q0.328125 -0.140625 0.71875 -0.140625q0.609375 0 0.953125 0.3125q0.34375 0.296875 0.359375 0.828125l0 1.609375q0 0.484375 0.109375 0.78125l0 0.046875l-0.625 0zm-1.0 -0.453125q0.28125 0 0.53125 -0.140625q0.265625 -0.15625 0.375 -0.390625l0 -0.71875l-0.46875 0q-1.109375 0 -1.109375 0.640625q0 0.28125 0.1875 0.453125q0.1875 0.15625 0.484375 0.15625zm3.026886 -3.0625l0.015625 0.4375q0.40625 -0.5 1.046875 -0.5q1.125 0 1.125 1.25l0 2.328125l-0.59375 0l0 -2.328125q-0.015625 -0.375 -0.1875 -0.5625q-0.15625 -0.1875 -0.515625 -0.1875q-0.296875 0 -0.515625 0.15625q-0.21875 0.15625 -0.34375 0.421875l0 2.5l-0.609375 0l0 -3.515625l0.578125 0z" fill-rule="nonzero"/><path fill="#307bf3" d="m423.84784 112.51706l0 0c0 -6.4186783 5.203369 -11.622047 11.62204 -11.622047l33.795288 0l0 0c3.0823364 0 6.038452 1.2244644 8.218018 3.4040222c2.1795654 2.1795578 3.4040222 5.135666 3.4040222 8.218025l0 0l0 0c0 6.4186783 -5.203369 11.622047 -11.62204 11.622047l-33.795288 0c-6.4186707 0 -11.62204 -5.203369 -11.62204 -11.622047z" fill-rule="evenodd"/><path fill="#ffffff" d="m445.12656 114.495186q0.328125 0 0.5625 -0.1875q0.25 -0.203125 0.265625 -0.5l0.578125 0q-0.015625 0.296875 -0.21875 0.578125q-0.1875 0.265625 -0.515625 0.4375q-0.3125 0.15625 -0.671875 0.15625q-0.71875 0 -1.140625 -0.46875q-0.421875 -0.484375 -0.421875 -1.3125l0 -0.109375q0 -0.515625 0.1875 -0.90625q0.1875 -0.40625 0.53125 -0.625q0.359375 -0.21875 0.84375 -0.21875q0.59375 0 0.984375 0.359375q0.390625 0.34375 0.421875 0.90625l-0.578125 0q-0.015625 -0.34375 -0.25 -0.5625q-0.234375 -0.21875 -0.578125 -0.21875q-0.453125 0 -0.703125 0.34375q-0.25 0.328125 -0.25 0.953125l0 0.109375q0 0.609375 0.25 0.9375q0.25 0.328125 0.703125 0.328125zm1.9216309 -1.375q0 -0.515625 0.203125 -0.921875q0.203125 -0.421875 0.5625 -0.640625q0.359375 -0.21875 0.828125 -0.21875q0.71875 0 1.15625 0.5q0.453125 0.484375 0.453125 1.3125l0 0.046875q0 0.515625 -0.203125 0.921875q-0.1875 0.40625 -0.5625 0.640625q-0.359375 0.21875 -0.84375 0.21875q-0.703125 0 -1.15625 -0.484375q-0.4375 -0.5 -0.4375 -1.328125l0 -0.046875zm0.609375 0.078125q0 0.578125 0.265625 0.9375q0.265625 0.359375 0.71875 0.359375q0.46875 0 0.734375 -0.359375q0.265625 -0.359375 0.265625 -1.015625q0 -0.578125 -0.28125 -0.9375q-0.265625 -0.359375 -0.71875 -0.359375q-0.4375 0 -0.71875 0.359375q-0.265625 0.359375 -0.265625 1.015625zm5.0461426 -1.265625q-0.140625 -0.015625 -0.296875 -0.015625q-0.59375 0 -0.796875 0.5l0 2.5l-0.609375 0l0 -3.515625l0.59375 0l0 0.40625q0.296875 -0.46875 0.84375 -0.46875q0.171875 0 0.265625 0.046875l0 0.546875zm2.7210693 2.984375q-0.046875 -0.109375 -0.078125 -0.375q-0.421875 0.4375 -1.0 0.4375q-0.53125 0 -0.859375 -0.28125q-0.328125 -0.296875 -0.328125 -0.75q0 -0.5625 0.40625 -0.859375q0.421875 -0.296875 1.1875 -0.296875l0.578125 0l0 -0.28125q0 -0.3125 -0.1875 -0.5q-0.1875 -0.1875 -0.5625 -0.1875q-0.3125 0 -0.53125 0.171875q-0.21875 0.15625 -0.21875 0.375l-0.609375 0q0 -0.265625 0.1875 -0.5q0.1875 -0.25 0.5 -0.390625q0.328125 -0.140625 0.71875 -0.140625q0.609375 0 0.953125 0.3125q0.34375 0.296875 0.359375 0.828125l0 1.609375q0 0.484375 0.109375 0.78125l0 0.046875l-0.625 0zm-1.0 -0.453125q0.28125 0 0.53125 -0.140625q0.265625 -0.15625 0.375 -0.390625l0 -0.71875l-0.46875 0q-1.109375 0 -1.109375 0.640625q0 0.28125 0.1875 0.453125q0.1875 0.15625 0.484375 0.15625zm3.105011 0.453125l-0.609375 0l0 -5.0l0.609375 0l0 5.0zm3.005951 -0.9375q0 -0.234375 -0.1875 -0.375q-0.171875 -0.140625 -0.640625 -0.234375q-0.453125 -0.09375 -0.71875 -0.234375q-0.265625 -0.140625 -0.40625 -0.328125q-0.125 -0.1875 -0.125 -0.4375q0 -0.4375 0.359375 -0.734375q0.375 -0.296875 0.953125 -0.296875q0.59375 0 0.96875 0.3125q0.375 0.296875 0.375 0.78125l-0.609375 0q0 -0.25 -0.21875 -0.421875q-0.203125 -0.1875 -0.515625 -0.1875q-0.328125 0 -0.515625 0.15625q-0.1875 0.140625 -0.1875 0.359375q0 0.21875 0.171875 0.34375q0.171875 0.109375 0.625 0.203125q0.453125 0.09375 0.71875 0.234375q0.28125 0.140625 0.421875 0.34375q0.140625 0.203125 0.140625 0.484375q0 0.46875 -0.390625 0.75q-0.375 0.28125 -0.96875 0.28125q-0.421875 0 -0.75 -0.140625q-0.328125 -0.15625 -0.515625 -0.421875q-0.171875 -0.265625 -0.171875 -0.578125l0.59375 0q0.015625 0.296875 0.234375 0.484375q0.234375 0.171875 0.609375 0.171875q0.34375 0 0.546875 -0.140625q0.203125 -0.140625 0.203125 -0.375z" fill-rule="nonzero"/><path fill="#000000" fill-opacity="0.0" d="m359.03946 76.877716l0 12.008537l93.322845 0l0 12.022957" fill-rule="evenodd"/><path stroke="#b7b7b7" stroke-width="1.0" stroke-linejoin="round" stroke-linecap="butt" d="m359.03946 76.877716l0 12.008537l93.322845 0l0 12.022957" fill-rule="evenodd"/><path fill="#000000" fill-opacity="0.0" d="m359.03946 76.877716l0 12.008537l-25.88977 0l0 12.022957" fill-rule="evenodd"/><path stroke="#b7b7b7" stroke-width="1.0" stroke-linejoin="round" stroke-linecap="butt" d="m359.03946 76.877716l0 12.008537l-25.88977 0l0 12.022957" fill-rule="evenodd"/><path fill="#000000" fill-opacity="0.0" d="m130.23053 76.877716l0 12.008537l-33.574806 0l0 12.022957" fill-rule="evenodd"/><path stroke="#b7b7b7" stroke-width="1.0" stroke-linejoin="round" stroke-linecap="butt" d="m130.23053 76.877716l0 12.008537l-33.574806 0l0 12.022957" fill-rule="evenodd"/><path fill="#000000" fill-opacity="0.0" d="m130.23053 76.877716l0 12.008537l25.039368 0l0 12.022957" fill-rule="evenodd"/><path stroke="#b7b7b7" stroke-width="1.0" stroke-linejoin="round" stroke-linecap="butt" d="m130.23053 76.877716l0 12.008537l25.039368 0l0 12.022957" fill-rule="evenodd"/><path fill="#000000" fill-opacity="0.0" d="m137.15749 233.65092l0 0c0 -45.009033 46.118195 -81.49606 103.00787 -81.49606l0 0c56.889664 0 103.00786 36.48703 103.00786 81.49606l0 0c0 45.009018 -46.118195 81.49605 -103.00786 81.49605l0 0c-56.88968 0 -103.00787 -36.48703 -103.00787 -81.49605z" fill-rule="evenodd"/><path stroke="#434343" stroke-width="1.0" stroke-linejoin="round" stroke-linecap="butt" d="m137.15749 233.65092l0 0c0 -45.009033 46.118195 -81.49606 103.00787 -81.49606l0 0c56.889664 0 103.00786 36.48703 103.00786 81.49606l0 0c0 45.009018 -46.118195 81.49605 -103.00786 81.49605l0 0c-56.88968 0 -103.00787 -36.48703 -103.00787 -81.49605z" fill-rule="evenodd"/><path fill="#000000" fill-opacity="0.0" d="m162.64043 255.00262l0 0c0 -19.464783 17.351608 -35.244095 38.755905 -35.244095l0 0c21.404297 0 38.755905 15.779312 38.755905 35.244095l0 0c0 19.464783 -17.351608 35.24408 -38.755905 35.24408l0 0c-21.404297 0 -38.755905 -15.779297 -38.755905 -35.24408z" fill-rule="evenodd"/><path stroke="#cc0000" stroke-width="1.0" stroke-linejoin="round" stroke-linecap="butt" d="m162.64043 255.00262l0 0c0 -19.464783 17.351608 -35.244095 38.755905 -35.244095l0 0c21.404297 0 38.755905 15.779312 38.755905 35.244095l0 0c0 19.464783 -17.351608 35.24408 -38.755905 35.24408l0 0c-21.404297 0 -38.755905 -15.779297 -38.755905 -35.24408z" fill-rule="evenodd"/><path fill="#000000" fill-opacity="0.0" d="m236.64043 209.25984l0 0c0 -16.846863 18.08487 -30.503937 40.393692 -30.503937l0 0c22.308838 0 40.393707 13.657074 40.393707 30.503937l0 0c0 16.846863 -18.08487 30.503937 -40.393707 30.503937l0 0c-22.308823 0 -40.393692 -13.657074 -40.393692 -30.503937z" fill-rule="evenodd"/><path stroke="#0d5ddf" stroke-width="1.0" stroke-linejoin="round" stroke-linecap="butt" d="m236.64043 209.25984l0 0c0 -16.846863 18.08487 -30.503937 40.393692 -30.503937l0 0c22.308838 0 40.393707 13.657074 40.393707 30.503937l0 0c0 16.846863 -18.08487 30.503937 -40.393707 30.503937l0 0c-22.308823 0 -40.393692 -13.657074 -40.393692 -30.503937z" fill-rule="evenodd"/><path fill="#e06666" d="m184.64043 246.00787l0 0c0 -1.2437286 1.121048 -2.2519684 2.5039368 -2.2519684l0 0c1.3828735 0 2.5039368 1.0082397 2.5039368 2.2519684l0 0c0 1.2437286 -1.1210632 2.2519684 -2.5039368 2.2519684l0 0c-1.3828888 0 -2.5039368 -1.0082397 -2.5039368 -2.2519684z" fill-rule="evenodd"/><path fill="#e06666" d="m211.63255 246.00787l0 0c0 -1.2437286 1.121048 -2.2519684 2.5039368 -2.2519684l0 0c1.3828735 0 2.5039368 1.0082397 2.5039368 2.2519684l0 0c0 1.2437286 -1.1210632 2.2519684 -2.5039368 2.2519684l0 0c-1.3828888 0 -2.5039368 -1.0082397 -2.5039368 -2.2519684z" fill-rule="evenodd"/><path fill="#e06666" d="m216.64043 278.00787l0 0c0 -1.2437134 1.121048 -2.2519531 2.5039368 -2.2519531l0 0c1.3828735 0 2.5039368 1.0082397 2.5039368 2.2519531l0 0c0 1.2437134 -1.1210632 2.2519836 -2.5039368 2.2519836l0 0c-1.3828888 0 -2.5039368 -1.0082703 -2.5039368 -2.2519836z" fill-rule="evenodd"/><path fill="#e06666" d="m194.64043 267.50394l0 0c0 -1.2437134 1.121048 -2.2519531 2.5039368 -2.2519531l0 0c1.3828735 0 2.5039368 1.0082397 2.5039368 2.2519531l0 0c0 1.2437134 -1.1210632 2.2519836 -2.5039368 2.2519836l0 0c-1.3828888 0 -2.5039368 -1.0082703 -2.5039368 -2.2519836z" fill-rule="evenodd"/><path fill="#307bf3" d="m267.6404 194.00787l0 0c0 -1.2437286 1.1210632 -2.2519684 2.5039368 -2.2519684l0 0c1.382904 0 2.5039368 1.0082397 2.5039368 2.2519684l0 0c0 1.2437286 -1.1210327 2.2519684 -2.5039368 2.2519684l0 0c-1.3828735 0 -2.5039368 -1.0082397 -2.5039368 -2.2519684z" fill-rule="evenodd"/><path fill="#307bf3" d="m274.53018 185.25984l0 0c0 -1.2437286 1.1210632 -2.2519684 2.5039368 -2.2519684l0 0c1.3828735 0 2.5039368 1.0082397 2.5039368 2.2519684l0 0c0 1.2437286 -1.1210632 2.2519684 -2.5039368 2.2519684l0 0c-1.3828735 0 -2.5039368 -1.0082397 -2.5039368 -2.2519684z" fill-rule="evenodd"/><path fill="#307bf3" d="m279.53806 231.50919l0 0c0 -1.2437286 1.1210632 -2.2519684 2.5039368 -2.2519684l0 0c1.3828735 0 2.5039368 1.0082397 2.5039368 2.2519684l0 0c0 1.2437286 -1.1210632 2.2519684 -2.5039368 2.2519684l0 0c-1.3828735 0 -2.5039368 -1.0082397 -2.5039368 -2.2519684z" fill-rule="evenodd"/><path fill="#307bf3" d="m308.6404 209.25984l0 0c0 -1.2437286 1.1210632 -2.2519684 2.5039368 -2.2519684l0 0c1.382904 0 2.5039368 1.0082397 2.5039368 2.2519684l0 0c0 1.2437286 -1.1210327 2.2519684 -2.5039368 2.2519684l0 0c-1.3828735 0 -2.5039368 -1.0082397 -2.5039368 -2.2519684z" fill-rule="evenodd"/><path fill="#000000" fill-opacity="0.0" d="m5.6850395 137.26509l466.99213 0" fill-rule="evenodd"/><path stroke="#000000" stroke-width="1.0" stroke-linejoin="round" stroke-linecap="butt" d="m5.6850395 137.26509l466.99213 0" fill-rule="evenodd"/></g></svg>